<?xml version="1.0" encoding="UTF-8"?>
<svg version="1.1" xmlns="http://www.w3.org/2000/svg" width="148" height="148">
<path d="M0 0 C48.84 0 97.68 0 148 0 C148 48.84 148 97.68 148 148 C99.16 148 50.32 148 0 148 C0 99.16 0 50.32 0 0 Z " fill="#FAFBFB" transform="translate(0,0)"/>
<path d="M0 0 C0 0.66 0 1.32 0 2 C0.66 2.20625 1.32 2.4125 2 2.625 C16.93255868 9.46908939 27.06135471 23.4717088 33.34375 38.13671875 C35.87769522 45.05981908 36.78926996 51.65957036 37 59 C37.0515625 60.28390625 37.103125 61.5678125 37.15625 62.890625 C37.50084356 74.74010545 35.20017388 84.56081133 30.625 95.4375 C30.34519287 96.11232422 30.06538574 96.78714844 29.77709961 97.48242188 C29.49229736 98.12630859 29.20749512 98.77019531 28.9140625 99.43359375 C28.6660791 100.00134521 28.4180957 100.56909668 28.16259766 101.15405273 C26.48298744 103.82090129 24.26812296 105.83027868 22 108 C14.4975499 93.92674157 7.26890427 79.72411095 0.13720703 65.4597168 C-1.35457695 62.47800892 -2.85037219 59.498385 -4.34818459 56.51970577 C-5.7903738 53.64903505 -7.22687808 50.77552253 -8.6640625 47.90234375 C-9.20141022 46.83483383 -9.73875793 45.76732391 -10.29238892 44.66746521 C-10.78065155 43.68786331 -11.26891418 42.70826141 -11.77197266 41.69897461 C-12.20369781 40.83694931 -12.63542297 39.97492401 -13.08023071 39.08677673 C-14 37 -14 37 -14 35 C-14.66 35 -15.32 35 -16 35 C-16.81604999 33.0848421 -17.62770632 31.16781166 -18.4375 29.25 C-18.88996094 28.18265625 -19.34242187 27.1153125 -19.80859375 26.015625 C-20.73979553 23.6586159 -21.4784072 21.47007165 -22 19 C-22.66 19 -23.32 19 -24 19 C-24.99 15.7 -25.98 12.4 -27 9 C-27.66 9 -28.32 9 -29 9 C-29.27585937 8.28457031 -29.55171875 7.56914062 -29.8359375 6.83203125 C-30.98248522 4.04261145 -32.26227115 1.37709642 -33.625 -1.3125 C-34.07101563 -2.19550781 -34.51703125 -3.07851562 -34.9765625 -3.98828125 C-35.48316406 -4.98408203 -35.48316406 -4.98408203 -36 -6 C-36.2990625 -5.37996094 -36.598125 -4.75992187 -36.90625 -4.12109375 C-38 -2 -38 -2 -39.5 -0.0625 C-41.07846109 1.92646734 -41.07846109 1.92646734 -41.875 4.22265625 C-43.65832326 8.62523554 -46.05266507 12.68873156 -48.34375 16.84375 C-49.98974424 19.82352105 -49.98974424 19.82352105 -50.90625 22.40625 C-51.880705 24.71710042 -52.94841042 26.55400728 -54.3046875 28.6484375 C-57.36554253 33.43397093 -59.73505539 38.47967583 -62.125 43.625 C-62.98129884 45.45074228 -63.83805758 47.27626894 -64.6953125 49.1015625 C-65.09516357 49.95427734 -65.49501465 50.80699219 -65.90698242 51.68554688 C-68.08948352 56.3069698 -70.42611826 60.80012467 -72.9375 65.25 C-74.91151618 68.8333742 -76.61279046 72.36285979 -78.0625 76.1875 C-79.5769413 80.18183894 -81.49996252 83.51666059 -83.84765625 87.0703125 C-85.35625044 89.59656853 -86.226421 92.20441968 -87.1796875 94.9765625 C-88.40297871 97.99401414 -90.13027331 100.62241576 -91.9140625 103.3359375 C-93.05556547 105.01588893 -93.05556547 105.01588893 -94 107 C-94.66 107 -95.32 107 -96 107 C-97.62109375 104.5859375 -97.62109375 104.5859375 -99.4375 101.375 C-100.03433594 100.33085938 -100.63117188 99.28671875 -101.24609375 98.2109375 C-110.27331155 81.68449422 -112.26672164 61.01840898 -106.9375 42.8125 C-104.67614611 35.76303694 -101.51411092 28.90131881 -97 23 C-96.34 23 -95.68 23 -95 23 C-94.773125 22.29875 -94.54625 21.5975 -94.3125 20.875 C-91.61079444 14.95697829 -87.10822923 10.85955097 -82 7 C-81.34 7 -80.68 7 -80 7 C-80 6.34 -80 5.68 -80 5 C-54.70008694 -10.93103901 -27.40215344 -12.69733484 0 0 Z " fill="#314355" transform="translate(110,9)"/>
<path d="M0 0 C48.84 0 97.68 0 148 0 C148 26.73 148 53.46 148 81 C147.67 81 147.34 81 147 81 C146.94054199 79.95827637 146.94054199 79.95827637 146.87988281 78.89550781 C146.18794533 60.96602453 146.18794533 60.96602453 141 44 C140.57847656 43.07703125 140.15695313 42.1540625 139.72265625 41.203125 C133.4660389 28.6552276 122.51455753 17.39041236 110 11 C110 10.34 110 9.68 110 9 C108.824375 8.87625 108.824375 8.87625 107.625 8.75 C103.77304535 7.95304387 100.53034768 6.63517252 96.953125 5.03515625 C79.36657364 -1.12944178 58.75328626 0.07123456 42 8 C39.14393453 9.52049528 36.4278655 11.0852994 33.75 12.8984375 C32 14 32 14 30 14 C30 14.66 30 15.32 30 16 C28.4609375 17.2265625 28.4609375 17.2265625 26.375 18.625 C21.45030445 22.17637903 17.72201495 26.5559701 15 32 C14.34 32 13.68 32 13 32 C12.72800781 32.71800781 12.45601562 33.43601563 12.17578125 34.17578125 C11.00878203 36.97890562 9.69731532 39.55428648 8.1875 42.1875 C7.70667969 43.04730469 7.22585937 43.90710937 6.73046875 44.79296875 C5 47 5 47 0 49 C0 32.83 0 16.66 0 0 Z " fill="#FAFBFB" transform="translate(0,0)"/>
<path d="M0 0 C1.64547318 0.00666183 1.64547318 0.00666183 3.32418823 0.01345825 C4.56532379 0.01360931 5.80645935 0.01376038 7.08520508 0.01391602 C8.4446529 0.02413003 9.8040991 0.03456204 11.1635437 0.04519653 C12.55073849 0.04892619 13.93793591 0.05177339 15.32513428 0.05377197 C18.97813171 0.0614122 22.63097037 0.08106388 26.28390503 0.10317993 C30.01068982 0.12363007 33.73750024 0.1327719 37.46432495 0.14285278 C44.77819945 0.16430953 52.09194309 0.19845001 59.4057312 0.24050903 C59.4057312 1.23050903 59.4057312 2.22050903 59.4057312 3.24050903 C60.0657312 3.24050903 60.7257312 3.24050903 61.4057312 3.24050903 C62.77747981 5.79490305 64.12798528 8.35715334 65.4682312 10.92800903 C66.05314331 12.00985474 66.05314331 12.00985474 66.64987183 13.11355591 C69.46255917 18.56469333 69.46255917 18.56469333 69.15182495 22.26004028 C68.90561401 22.91359497 68.65940308 23.56714966 68.4057312 24.24050903 C67.0857312 24.24050903 65.7657312 24.24050903 64.4057312 24.24050903 C64.4057312 24.90050903 64.4057312 25.56050903 64.4057312 26.24050903 C62.4257312 26.57050903 60.4457312 26.90050903 58.4057312 27.24050903 C58.4057312 27.90050903 58.4057312 28.56050903 58.4057312 29.24050903 C55.86479265 29.88932351 53.32304848 30.53463802 50.7807312 31.17800903 C50.06787964 31.36041138 49.35502808 31.54281372 48.62057495 31.73074341 C33.32966021 35.588543 17.19205384 36.2828975 2.4057312 30.24050903 C1.47116089 29.89375122 0.53659058 29.54699341 -0.42630005 29.18972778 C-4.7350474 27.55581041 -8.74269293 25.80822628 -12.5942688 23.24050903 C-12.09696228 18.26744387 -11.04124545 14.6025109 -8.5942688 10.24050903 C-7.9342688 10.24050903 -7.2742688 10.24050903 -6.5942688 10.24050903 C-6.1611438 8.32238403 -6.1611438 8.32238403 -5.7192688 6.36550903 C-4.85997833 2.5600798 -4.28367014 0.39712977 0 0 Z " fill="#324456" transform="translate(45.594268798828125,111.75949096679688)"/>
<path d="M0 0 C3.69199051 3.23457575 5.67698575 6.8833707 7.75 11.25 C8.44231394 12.67467089 9.13503502 14.09914399 9.828125 15.5234375 C10.18197266 16.2565918 10.53582031 16.98974609 10.90039062 17.74511719 C12.01050326 20.02153821 13.1482752 22.28183963 14.296875 24.5390625 C14.66586914 25.26577148 15.03486328 25.99248047 15.41503906 26.74121094 C16.12832538 28.14402877 16.84375909 29.54575717 17.56152344 30.94628906 C20 35.77658453 20 35.77658453 20 38 C7.13 38 -5.74 38 -19 38 C-17 33 -17 33 -15.5625 30.625 C-14.08381104 28.14080255 -12.98561977 25.63276784 -11.86303711 22.97509766 C-10.36538423 19.54765442 -8.67992155 16.21589661 -7 12.875 C-6.65710938 12.18535156 -6.31421875 11.49570312 -5.9609375 10.78515625 C-4.11186784 7.09407445 -2.1841469 3.50828596 0 0 Z " fill="#394959" transform="translate(73,52)"/>
<path d="M0 0 C1.09920273 0.00222061 2.19840546 0.00444122 3.33091736 0.00672913 C4.57212845 0.00680466 5.81333954 0.00688019 7.09216309 0.00695801 C8.45682311 0.01206541 9.82148274 0.01728142 11.18614197 0.02259827 C12.57476755 0.02446251 13.96339379 0.02588638 15.35202026 0.02688599 C19.01319686 0.03071065 22.67433402 0.04054048 26.335495 0.05158997 C30.06890835 0.06180519 33.80232805 0.06638384 37.53575134 0.07142639 C44.86584748 0.08216281 52.19591108 0.0992386 59.52598572 0.12025452 C59.19598572 0.78025452 58.86598572 1.44025452 58.52598572 2.12025452 C40.04598572 1.79025452 21.56598572 1.46025452 2.52598572 1.12025452 C2.52598572 1.78025452 2.52598572 2.44025452 2.52598572 3.12025452 C1.88661072 3.24400452 1.24723572 3.36775452 0.58848572 3.49525452 C-0.09213928 3.70150452 -0.77276428 3.90775452 -1.47401428 4.12025452 C-1.80401428 4.78025452 -2.13401428 5.44025452 -2.47401428 6.12025452 C-3.46401428 6.12025452 -4.45401428 6.12025452 -5.47401428 6.12025452 C-3.17951125 0.15454664 -3.17951125 0.15454664 0 0 Z " fill="#455261" transform="translate(45.47401428222656,111.87974548339844)"/>
<path d="M0 0 C0.33 0.66 0.66 1.32 1 2 C0.39253868 3.74301715 -0.26333753 5.46918017 -0.9375 7.1875 C-4.90038232 19.40410962 -3.83117958 33.41994515 -2 46 C-2.99 45.67 -3.98 45.34 -5 45 C-5.12349116 39.07356401 -5.21428772 33.14787471 -5.2746582 27.22045898 C-5.29982071 25.20372475 -5.3339543 23.18708187 -5.37719727 21.1706543 C-5.43777325 18.2736968 -5.46619169 15.37794339 -5.48828125 12.48046875 C-5.51408768 11.57725388 -5.5398941 10.674039 -5.56648254 9.74345398 C-5.56754115 7.38704883 -5.54002556 5.29399318 -5 3 C-2.46948242 0.9074707 -2.46948242 0.9074707 0 0 Z " fill="#E3EBEE" transform="translate(5,46)"/>
<path d="M0 0 C0.66 0.33 1.32 0.66 2 1 C1.38125 1.061875 0.7625 1.12375 0.125 1.1875 C-0.57625 1.455625 -1.2775 1.72375 -2 2 C-2.66 3.65 -3.32 5.3 -4 7 C-13.57 6.67 -23.14 6.34 -33 6 C-33 5.67 -33 5.34 -33 5 C-32.00742188 4.96261719 -31.01484375 4.92523438 -29.9921875 4.88671875 C-19.7099843 4.41824645 -9.83200125 3.27733375 0 0 Z " fill="#CED8DD" transform="translate(99,141)"/>
<path d="M0 0 C0.33 1.32 0.66 2.64 1 4 C1.66 4 2.32 4 3 4 C4.125 5.75 4.125 5.75 5 8 C4.125 10.1875 4.125 10.1875 3 12 C3 12.33 3 12.66 3 13 C2.67240066 15.33414529 2.33926947 17.66752239 2 20 C2.66 20.33 3.32 20.66 4 21 C3.34 21.66 2.68 22.32 2 23 C-0.98005378 15.05318991 -1.24304802 8.26148836 0 0 Z " fill="#354756" transform="translate(3,76)"/>
<path d="M0 0 C0.69738281 0.00451172 1.39476563 0.00902344 2.11328125 0.01367188 C3.82555803 0.0253998 5.53779033 0.04333347 7.25 0.0625 C6.92 0.7225 6.59 1.3825 6.25 2.0625 C5.940625 2.743125 5.63125 3.42375 5.3125 4.125 C4.25 6.0625 4.25 6.0625 2.25 7.0625 C2.25 6.0725 2.25 5.0825 2.25 4.0625 C-3.11095333 2.93387825 -8.30306686 2.96561779 -13.75 3.0625 C-9.89613572 -0.79136428 -5.17421968 -0.06357737 0 0 Z " fill="#535E67" transform="translate(67.75,0.9375)"/>
<path d="M0 0 C4.23582327 -0.04938628 8.47149465 -0.08571263 12.70751953 -0.10986328 C14.14895547 -0.11992963 15.59037095 -0.1335838 17.03173828 -0.15087891 C19.10193934 -0.17510012 21.17187076 -0.18647641 23.2421875 -0.1953125 C25.11173096 -0.21102295 25.11173096 -0.21102295 27.01904297 -0.22705078 C30 0 30 0 32 2 C31.67 2.66 31.34 3.32 31 4 C30.03126953 3.80083984 30.03126953 3.80083984 29.04296875 3.59765625 C19.40198283 1.79079569 9.77849924 1.38868512 0 1 C0 0.67 0 0.34 0 0 Z " fill="#D5DFE5" transform="translate(65,0)"/>
<path d="M0 0 C5.28 0 10.56 0 16 0 C16 0.33 16 0.66 16 1 C13.58343624 1.64622041 11.16675354 2.29199004 8.75 2.9375 C8.06808594 3.11990234 7.38617188 3.30230469 6.68359375 3.49023438 C3.46139106 4.35053121 0.23946777 5.20683134 -3 6 C-2.01 4.02 -1.02 2.04 0 0 Z " fill="#EFF5F7" transform="translate(49,0)"/>
<path d="M0 0 C0.33 0.66 0.66 1.32 1 2 C-0.21484375 4.8203125 -0.21484375 4.8203125 -1.9375 8.125 C-2.50339844 9.22070312 -3.06929687 10.31640625 -3.65234375 11.4453125 C-4.09707031 12.28835937 -4.54179688 13.13140625 -5 14 C-5.66 14 -6.32 14 -7 14 C-5.92463344 9.11949023 -4.98693694 5.10703829 -2 1 C-1.34 0.67 -0.68 0.34 0 0 Z " fill="#4B5965" transform="translate(12,36)"/>
<path d="M0 0 C0.66 0.33 1.32 0.66 2 1 C1.67 2.65 1.34 4.3 1 6 C0.01 6 -0.98 6 -2 6 C-2 6.99 -2 7.98 -2 9 C-6.34285714 13 -6.34285714 13 -9 13 C-9 12.34 -9 11.68 -9 11 C-8.34 11 -7.68 11 -7 11 C-6.6596875 9.948125 -6.6596875 9.948125 -6.3125 8.875 C-4.68343133 5.30656387 -2.59359269 2.93485489 0 0 Z " fill="#42505B" transform="translate(22,21)"/>
<path d="M0 0 C0.99 0.99 1.98 1.98 3 3 C1.58654524 6.41584899 -0.03347106 7.86780732 -3 10 C-3.66 10.99 -4.32 11.98 -5 13 C-4.39254603 8.14036821 -2.27241033 4.2594482 0 0 Z " fill="#DDE5EB" transform="translate(73,2)"/>
<path d="M0 0 C2.31 0.33 4.62 0.66 7 1 C6.67 2.32 6.34 3.64 6 5 C3.625 5.625 3.625 5.625 1 6 C0.34 5.34 -0.32 4.68 -1 4 C-0.625 1.875 -0.625 1.875 0 0 Z " fill="#2D404D" transform="translate(64,3)"/>
<path d="M0 0 C2.97 0 5.94 0 9 0 C8 3 8 3 6 5 C3.375 5.625 3.375 5.625 1 6 C0.67 4.02 0.34 2.04 0 0 Z " fill="#394D5A" transform="translate(75,1)"/>
<path d="M0 0 C1 3 1 3 0.22265625 4.82421875 C-0.8515625 6.54947917 -1.92578125 8.27473958 -3 10 C-3.12375 9.360625 -3.2475 8.72125 -3.375 8.0625 C-3.684375 7.0415625 -3.684375 7.0415625 -4 6 C-4.66 5.67 -5.32 5.34 -6 5 C-2.25 1.125 -2.25 1.125 0 0 Z " fill="#2F3B4D" transform="translate(19,105)"/>
<path d="M0 0 C2.97069541 2.54631035 4.4775751 5.42230149 6 9 C5.67 9.66 5.34 10.32 5 11 C4.01 11 3.02 11 2 11 C1.67 9.02 1.34 7.04 1 5 C0.34 5 -0.32 5 -1 5 C-0.67 3.35 -0.34 1.7 0 0 Z " fill="#5B6970" transform="translate(136,35)"/>
<path d="M0 0 C0.66 0.33 1.32 0.66 2 1 C1.814375 1.639375 1.62875 2.27875 1.4375 2.9375 C1.2209375 3.9584375 1.2209375 3.9584375 1 5 C1.33 5.33 1.66 5.66 2 6 C2.36442233 7.66014616 2.69972883 9.32706064 3 11 C2.34 11 1.68 11 1 11 C1 10.34 1 9.68 1 9 C0.34 9 -0.32 9 -1 9 C-0.67 6.03 -0.34 3.06 0 0 Z " fill="#313F4A" transform="translate(73,52)"/>
<path d="M0 0 C0.66 0.33 1.32 0.66 2 1 C0.68 3.31 -0.64 5.62 -2 8 C-3.65 7.67 -5.3 7.34 -7 7 C-6.34 6.01 -5.68 5.02 -5 4 C-4.34 4 -3.68 4 -3 4 C-3 3.34 -3 2.68 -3 2 C-2.01 1.34 -1.02 0.68 0 0 Z " fill="#515E68" transform="translate(33,12)"/>
<path d="M0 0 C1.5625 1.75 1.5625 1.75 3 4 C2.72117131 7.06711564 1.75752863 8.36370706 0 11 C-0.19491452 9.54263913 -0.38069358 8.08405407 -0.5625 6.625 C-0.66691406 5.81289062 -0.77132813 5.00078125 -0.87890625 4.1640625 C-1 2 -1 2 0 0 Z " fill="#F2F5F6" transform="translate(1,89)"/>
<path d="M0 0 C0.99 0.33 1.98 0.66 3 1 C2.67 3.31 2.34 5.62 2 8 C2.66 8.33 3.32 8.66 4 9 C3.34 9.66 2.68 10.32 2 11 C0.57741188 7.17679443 -0.24042276 4.08718695 0 0 Z " fill="#4A555D" transform="translate(3,88)"/>
<path d="M0 0 C1.485 0.99 1.485 0.99 3 2 C3 3.32 3 4.64 3 6 C3.66 6 4.32 6 5 6 C5.66 7.98 6.32 9.96 7 12 C5.68 12 4.36 12 3 12 C3.33 10.35 3.66 8.7 4 7 C3.34 7 2.68 7 2 7 C1.34 4.69 0.68 2.38 0 0 Z " fill="#CCD3D9" transform="translate(78,12)"/>
<path d="M0 0 C0.99 0 1.98 0 3 0 C1.90931332 3.77545388 1.0916909 6.47043472 -2 9 C-2.33 7.02 -2.66 5.04 -3 3 C-2.01 3.33 -1.02 3.66 0 4 C-0.33 3.01 -0.66 2.02 -1 1 C-0.67 0.67 -0.34 0.34 0 0 Z " fill="#515E69" transform="translate(30,82)"/>
<path d="M0 0 C1.45606519 4.52092968 0.27032841 7.51648796 -1 12 C-1.99 12 -2.98 12 -4 12 C-3.52309796 10.37433394 -3.04340334 8.74948689 -2.5625 7.125 C-2.29566406 6.22007813 -2.02882812 5.31515625 -1.75390625 4.3828125 C-1 2 -1 2 0 0 Z " fill="#C3CBD4" transform="translate(143,96)"/>
<path d="M0 0 C0 1.32 0 2.64 0 4 C-2.64 3.34 -5.28 2.68 -8 2 C-4.91190305 0.23537317 -3.76687864 0 0 0 Z " fill="#4C5867" transform="translate(48,137)"/>
<path d="M0 0 C0.66 0.99 1.32 1.98 2 3 C2.33 2.34 2.66 1.68 3 1 C3 3.31 3 5.62 3 8 C2.34 8 1.68 8 1 8 C0.01 6.02 -0.98 4.04 -2 2 C-1.34 1.34 -0.68 0.68 0 0 Z " fill="#434C5B" transform="translate(13,108)"/>
<path d="M0 0 C0.66 0 1.32 0 2 0 C3.125 4.75 3.125 4.75 2 7 C2.66 7.33 3.32 7.66 4 8 C3.34 8.66 2.68 9.32 2 10 C1.01 7.03 0.02 4.06 -1 1 C-0.67 0.67 -0.34 0.34 0 0 Z " fill="#4B5865" transform="translate(84,18)"/>
<path d="M0 0 C2 3.75 2 3.75 2 6 C0.35 6.33 -1.3 6.66 -3 7 C-1.125 1.125 -1.125 1.125 0 0 Z " fill="#CDD4D9" transform="translate(27,93)"/>
<path d="M0 0 C2.15377564 2.62198774 3.40072174 4.64404172 4 8 C2.35 7.01 0.7 6.02 -1 5 C-0.67 3.35 -0.34 1.7 0 0 Z " fill="#D1D9DE" transform="translate(105,64)"/>
<path d="M0 0 C2.15377564 2.62198774 3.40072174 4.64404172 4 8 C1.00667261 7.0022242 0.05233685 6.2477975 -2 4 C-1.34 2.68 -0.68 1.36 0 0 Z " fill="#58636C" transform="translate(75,54)"/>
<path d="M0 0 C0 1.32 0 2.64 0 4 C-2.91517292 2.92598892 -4.77810176 2.22189824 -7 0 C-3.86650268 -1.04449911 -3.01031744 -0.93423645 0 0 Z " fill="#D5DEE2" transform="translate(117,10)"/>
<path d="M0 0 C0.66 0.33 1.32 0.66 2 1 C1.67 2.65 1.34 4.3 1 6 C-0.65 6 -2.3 6 -4 6 C-2.68 4.02 -1.36 2.04 0 0 Z " fill="#505C66" transform="translate(22,21)"/>
</svg>
