<?xml version="1.0" encoding="UTF-8"?>
<svg version="1.1" xmlns="http://www.w3.org/2000/svg" width="252" height="200">
<path d="M0 0 C83.16 0 166.32 0 252 0 C252 66 252 132 252 200 C168.84 200 85.68 200 0 200 C0 134 0 68 0 0 Z " fill="#FCFCFC" transform="translate(0,0)"/>
<path d="M0 0 C5.61 0 11.22 0 17 0 C17 43.56 17 87.12 17 132 C11.39 132 5.78 132 0 132 C0 88.44 0 44.88 0 0 Z " fill="#040404" transform="translate(169,34)"/>
<path d="M0 0 C5.61 0 11.22 0 17 0 C17 43.56 17 87.12 17 132 C11.39 132 5.78 132 0 132 C0 88.44 0 44.88 0 0 Z " fill="#050505" transform="translate(37,34)"/>
<path d="M0 0 C5.28 0 10.56 0 16 0 C16 43.56 16 87.12 16 132 C10.72 132 5.44 132 0 132 C0 88.44 0 44.88 0 0 Z " fill="#000000" transform="translate(88,34)"/>
<path d="M0 0 C4.95 0 9.9 0 15 0 C15 43.56 15 87.12 15 132 C10.05 132 5.1 132 0 132 C0 88.44 0 44.88 0 0 Z " fill="#010101" transform="translate(200,34)"/>
<path d="M0 0 C3.96 0 7.92 0 12 0 C12 43.56 12 87.12 12 132 C8.04 132 4.08 132 0 132 C0 88.44 0 44.88 0 0 Z " fill="#090909" transform="translate(142,34)"/>
<path d="M0 0 C2.97 0 5.94 0 9 0 C9 43.56 9 87.12 9 132 C6.03 132 3.06 132 0 132 C0 88.44 0 44.88 0 0 Z " fill="#010101" transform="translate(119,34)"/>
<path d="M0 0 C3.3 0 6.6 0 10 0 C10 8.25 10 16.5 10 25 C20.56 25 31.12 25 42 25 C42 28.3 42 31.6 42 35 C36.50076251 35.07411371 31.00181521 35.12858464 25.50219727 35.16479492 C23.63105201 35.17988873 21.75994217 35.20036589 19.88891602 35.22631836 C17.20059474 35.26267593 14.51274087 35.27972015 11.82421875 35.29296875 C10.56782845 35.31619453 10.56782845 35.31619453 9.28605652 35.33988953 C3.44728431 35.34158445 3.44728431 35.34158445 1.27624512 33.68359375 C-0.78121947 30.96943292 -0.36679962 27.97078809 -0.29296875 24.70703125 C-0.28872391 24.00100266 -0.28447906 23.29497406 -0.28010559 22.56755066 C-0.26333034 20.31547697 -0.22568243 18.06430258 -0.1875 15.8125 C-0.17245157 14.28451815 -0.15876344 12.75652224 -0.14648438 11.22851562 C-0.11343089 7.48533128 -0.06165832 3.74281804 0 0 Z " fill="#0B0B0B" transform="translate(0,164)"/>
<path d="M0 0 C1.65 0 3.3 0 5 0 C5 43.56 5 87.12 5 132 C3.35 132 1.7 132 0 132 C0 88.44 0 44.88 0 0 Z " fill="#000000" transform="translate(68,34)"/>
<path d="M0 0 C3.3 0 6.6 0 10 0 C10.07417023 4.50232334 10.1286105 9.00429091 10.16479492 13.50708008 C10.17987936 15.03871861 10.20034978 16.57031398 10.22631836 18.10180664 C10.26271847 20.30365654 10.27972913 22.50493533 10.29296875 24.70703125 C10.30845261 25.39150833 10.32393646 26.07598541 10.33988953 26.78120422 C10.34083042 29.44051598 10.23110072 31.54960332 9.00585938 33.9375 C5.70594983 35.68545598 2.25332988 35.3639674 -1.38671875 35.29296875 C-2.20372757 35.28872391 -3.02073639 35.28447906 -3.86250305 35.28010559 C-6.47117107 35.26331691 -9.07906562 35.22566519 -11.6875 35.1875 C-13.45636905 35.17245337 -15.22525021 35.15876492 -16.99414062 35.14648438 C-21.32972496 35.11341286 -25.66473136 35.0616299 -30 35 C-30 31.7 -30 28.4 -30 25 C-20.1 25 -10.2 25 0 25 C0 16.75 0 8.5 0 0 Z " fill="#0B0B0B" transform="translate(242,164)"/>
<path d="M0 0 C5.21440513 -0.07412765 10.42850393 -0.12859104 15.64331055 -0.16479492 C17.41745343 -0.17988641 19.19155898 -0.20036191 20.96557617 -0.22631836 C23.51490487 -0.26268641 26.06374059 -0.27972238 28.61328125 -0.29296875 C29.40712723 -0.30845261 30.20097321 -0.32393646 31.01887512 -0.33988953 C33.95958529 -0.34078933 36.37218436 -0.33255278 39.00585938 1.0625 C40.5420163 4.05634611 40.3672122 7.01097349 40.29296875 10.29296875 C40.28872391 10.99899734 40.28447906 11.70502594 40.28010559 12.43244934 C40.26333034 14.68452303 40.22568243 16.93569742 40.1875 19.1875 C40.17245157 20.71548185 40.15876344 22.24347776 40.14648438 23.77148438 C40.11343089 27.51466872 40.06165832 31.25718196 40 35 C36.7 35 33.4 35 30 35 C30 26.75 30 18.5 30 10 C20.1 10 10.2 10 0 10 C0 6.7 0 3.4 0 0 Z " fill="#0B0B0B" transform="translate(212,1)"/>
<path d="M0 0 C0.86140091 0.00424484 1.72280182 0.00848969 2.61030579 0.01286316 C5.36161556 0.02965627 8.11219287 0.06730919 10.86328125 0.10546875 C12.72850505 0.12051479 14.59374032 0.13420334 16.45898438 0.14648438 C21.03153223 0.17956182 25.60353255 0.23134815 30.17578125 0.29296875 C30.17578125 3.26296875 30.17578125 6.23296875 30.17578125 9.29296875 C19.28578125 9.29296875 8.39578125 9.29296875 -2.82421875 9.29296875 C-2.82421875 17.87296875 -2.82421875 26.45296875 -2.82421875 35.29296875 C-5.79421875 35.29296875 -8.76421875 35.29296875 -11.82421875 35.29296875 C-11.89838898 30.79064541 -11.95282925 26.28867784 -11.98901367 21.78588867 C-12.00409811 20.25425014 -12.02456853 18.72265477 -12.05053711 17.19116211 C-12.08693722 14.98931221 -12.10394788 12.78803342 -12.1171875 10.5859375 C-12.13267136 9.90146042 -12.14815521 9.21698334 -12.16410828 8.51176453 C-12.16579531 3.74356884 -12.16579531 3.74356884 -10.54797363 1.609375 C-7.50456335 -0.71483267 -3.67628563 -0.06796026 0 0 Z " fill="#000000" transform="translate(11.82421875,0.70703125)"/>
</svg>
