<?xml version="1.0" encoding="UTF-8"?>
<svg version="1.1" xmlns="http://www.w3.org/2000/svg" width="225" height="225">
<path d="M0 0 C74.25 0 148.5 0 225 0 C225 74.25 225 148.5 225 225 C150.75 225 76.5 225 0 225 C0 150.75 0 76.5 0 0 Z " fill="#020202" transform="translate(0,0)"/>
<path d="M0 0 C8.25 0 16.5 0 25 0 C25 51.81 25 103.62 25 157 C77.14 157 129.28 157 183 157 C183 165.25 183 173.5 183 182 C122.61 182 62.22 182 0 182 C0 121.94 0 61.88 0 0 Z " fill="#FEFEFE" transform="translate(0,43)"/>
<path d="M0 0 C0 42.57 0 85.14 0 129 C-42.57 129 -85.14 129 -129 129 C-125.26378166 124.6410786 -121.68203441 120.55675188 -117.65361023 116.52662659 C-117.15099586 116.02245223 -116.64838149 115.51827786 -116.13053638 114.99882549 C-114.46787537 113.33221759 -112.80171341 111.66915729 -111.13549805 110.00610352 C-109.93407362 108.80332235 -108.73286166 107.60032892 -107.53184509 106.3971405 C-104.28663296 103.14738948 -101.03829001 99.90078524 -97.78921866 96.65489316 C-94.38758579 93.25579872 -90.98840089 89.85425764 -87.58882141 86.45310974 C-81.88710155 80.74957401 -76.18328362 75.04814285 -70.47827148 69.34790039 C-63.87453794 62.74962401 -57.27443571 56.14773172 -50.67617768 49.54398018 C-45.00998443 43.87325786 -39.34185602 38.20447536 -33.67208701 32.53732818 C-30.28576671 29.15256979 -26.90013266 25.76713241 -23.51624107 22.37994576 C-20.34118534 19.20201378 -17.16371721 16.02651425 -13.9843235 12.85292244 C-12.81476 11.6846872 -11.64605775 10.51558906 -10.47825623 9.3455925 C-8.89161735 7.7562451 -7.30196975 6.16997177 -5.71147156 4.58448792 C-4.82051631 3.69390969 -3.92956106 2.80333147 -3.01160717 1.88576603 C-1 0 -1 0 0 0 Z " fill="#FCFCFC" transform="translate(183,54)"/>
<path d="M0 0 C42.24 0 84.48 0 128 0 C126.00038429 3.99923142 124.15410636 6.09498991 121.02073669 9.22650146 C120.2535657 9.99729408 120.2535657 9.99729408 119.4708963 10.78365827 C117.75672404 12.50346422 116.0354994 14.21603151 114.31420898 15.92871094 C113.08360251 17.16039034 111.85342912 18.39250257 110.62365723 19.62501526 C107.28334446 22.97017647 103.93681338 26.30905264 100.58900714 29.6467123 C97.09081132 33.13613187 93.59788123 36.63081505 90.10426331 40.12481689 C84.23901018 45.98913346 78.369896 51.8495631 72.49829102 57.70751953 C65.70004613 64.4900207 58.90706038 71.27775269 52.11704963 78.06849647 C45.59371802 84.59243731 39.0675391 91.1135216 32.53975105 97.63300323 C29.75707608 100.41213853 26.97526031 103.19212976 24.19408989 105.97277069 C20.92398238 109.24187745 17.65134999 112.50843535 14.37670135 115.77299309 C13.17166898 116.97509232 11.967494 118.17805171 10.76421547 119.38190651 C9.12920222 121.01740665 7.49117263 122.64982215 5.85227966 124.28143311 C4.47486933 125.65632967 4.47486933 125.65632967 3.06963253 127.05900192 C1 129 1 129 0 129 C0 86.43 0 43.86 0 0 Z " fill="#FCFCFC" transform="translate(42,42)"/>
<path d="M0 0 C60.39 0 120.78 0 183 0 C183 60.39 183 120.78 183 183 C174.42 183 165.84 183 157 183 C156.44118123 164.3798882 156.01453611 145.76219025 155.75650787 127.13538361 C155.63343657 118.48348741 155.46614669 109.8369364 155.18945312 101.18847656 C154.94800334 93.63792355 154.79490605 86.09124168 154.74187613 78.53693533 C154.71092344 74.54511215 154.63992446 70.56434615 154.46247864 66.5761261 C153.82332855 51.65026485 153.55476612 39.3044687 164.10395002 27.78891516 C169.34087846 22.39855232 175.03765482 17.56717661 181 13 C179.94645929 10.77382267 179.12920379 9.12920379 177.375 7.375 C176.92125 6.92125 176.4675 6.4675 176 6 C176 5.34 176 4.68 176 4 C175.34 4 174.68 4 174 4 C174 3.34 174 2.68 174 2 C170.61754431 2.27964729 169.27089163 2.72242397 166.86350918 5.18920994 C166.14368894 6.13325152 165.42386869 7.07729311 164.68223572 8.04994202 C156.85944531 17.68596744 149.26775196 26.74775123 136.27319413 28.29244822 C128.91959567 28.89092343 121.54728178 28.64534233 114.18629193 28.33206058 C110.15680313 28.18589219 106.12668593 28.17459106 102.09495544 28.1474762 C94.49878915 28.07665381 86.91045516 27.88892432 79.31770319 27.65643793 C70.65823438 27.39718472 61.99834222 27.27237281 53.33594429 27.15744293 C35.55276896 26.9185606 17.77730821 26.51065614 0 26 C0 17.42 0 8.84 0 0 Z " fill="#FCFCFC" transform="translate(42,0)"/>
<path d="M0 0 C8.58 0 17.16 0 26 0 C26 8.25 26 16.5 26 25 C17.42 25 8.84 25 0 25 C0 16.75 0 8.5 0 0 Z " fill="#FCFCFC" transform="translate(199,200)"/>
<path d="M0 0 C8.25 0 16.5 0 25 0 C25 8.58 25 17.16 25 26 C16.75 26 8.5 26 0 26 C0 17.42 0 8.84 0 0 Z " fill="#FCFCFC" transform="translate(0,0)"/>
<path d="M0 0 C4.29 0 8.58 0 13 0 C14.51071429 12.47912946 14.51071429 12.47912946 10.75 17.40527344 C7.73506834 20.81232567 4.38385712 23.84220859 1 26.875 C-0.15942963 27.96407274 -1.31571506 29.056503 -2.46875 30.15234375 C-5.27773289 32.80834033 -8.12537876 35.41526189 -11 38 C-11 35 -11 35 -8.98046875 32.63989258 C-8.05878906 31.73392334 -7.13710937 30.8279541 -6.1875 29.89453125 C-5.69918701 29.4104631 -5.21087402 28.92639496 -4.70776367 28.42765808 C-3.14540174 26.8820986 -1.57293673 25.34728893 0 23.8125 C1.06057762 22.76696718 2.12048229 21.72075127 3.1796875 20.67382812 C5.77869434 18.10791098 8.3868639 15.55153533 11 13 C9.94645929 10.77382267 9.12920379 9.12920379 7.375 7.375 C6.92125 6.92125 6.4675 6.4675 6 6 C6 5.34 6 4.68 6 4 C5.34 4 4.68 4 4 4 C4 3.34 4 2.68 4 2 C2.68 1.34 1.36 0.68 0 0 Z " fill="#E5E5E5" transform="translate(212,0)"/>
</svg>
