<svg width="48" height="48" viewBox="0 0 48 48" fill="none" xmlns="http://www.w3.org/2000/svg">
<rect width="48" height="48" rx="8" fill="#FFE70D"/>
<path d="M29.684 30.827H33.0942C34.3598 30.827 35.179 29.9074 35.5563 27.8382C35.9061 25.8518 35.4459 24.9644 34.1757 24.9644H30.7655L31.2994 21.9894C31.9023 18.5868 33.6925 16.9086 36.6332 16.9086H37.1947C38.8238 16.9086 39.7212 16.6465 39.8455 15.8878C39.8951 15.2183 39.8233 14.5454 39.6338 13.9014C39.5224 13.246 39.3146 12.6108 39.0171 12.0162C38.6213 11.3311 37.7147 11 36.2881 11C32.7583 11 29.8451 11.9656 27.5441 13.9244C25.243 15.8832 23.8117 18.4903 23.172 22.04L22.6244 24.9644H16.6115C16.4964 24.9644 10.2166 25.7875 10.2166 25.7875L15.9074 26.8128L16.1835 27.8014L13.139 28.1463L16.3952 28.7762L16.5701 29.5763L8 30.2982L17.7206 30.827H21.5613L20.8187 34.9755C20.5365 36.5519 21.7484 38 23.3499 38H26.2578C27.5049 38 28.5723 37.105 28.7898 35.8769L29.684 30.827Z" fill="#1642B9"/>
</svg>
