<?xml version="1.0" encoding="UTF-8"?>
<svg version="1.1" xmlns="http://www.w3.org/2000/svg" width="196" height="148">
<path d="M0 0 C64.68 0 129.36 0 196 0 C196 48.84 196 97.68 196 148 C131.32 148 66.64 148 0 148 C0 99.16 0 50.32 0 0 Z " fill="#0A5F6F" transform="translate(0,0)"/>
<path d="M0 0 C22.44 0 44.88 0 68 0 C68 48.84 68 97.68 68 148 C45.56 148 23.12 148 0 148 C2.74120403 145.25879597 4.22450851 144.28291997 7.625 142.75 C14.21889819 139.55412526 19.84137472 135.32253574 24.9375 130.0625 C25.618125 129.381875 26.29875 128.70125 27 128 C27.66 128 28.32 128 29 128 C29.26167969 127.43410156 29.52335937 126.86820312 29.79296875 126.28515625 C31.10227569 123.80637127 32.64104242 121.68711143 34.3125 119.4375 C44.38246106 105.18913186 48.17600625 89.86329982 48.25 72.6875 C48.270625 71.50220703 48.29125 70.31691406 48.3125 69.09570312 C48.34358242 62.0905021 47.67554429 56.46817092 45 50 C44.69578125 49.05511719 44.3915625 48.11023437 44.078125 47.13671875 C36.42582588 24.50468315 20.53860791 11.41813445 0 1 C0 0.67 0 0.34 0 0 Z " fill="#FCFDFD" transform="translate(128,0)"/>
<path d="M0 0 C22.11 0 44.22 0 67 0 C64.77933127 2.22066873 62.72818725 3.25486871 59.9375 4.6875 C53.87443701 7.93813035 48.14296134 11.69837956 43.375 16.70703125 C42 18 42 18 40 18 C39.72929688 18.58007812 39.45859375 19.16015625 39.1796875 19.7578125 C37.99909947 22.0017116 36.67650689 23.87331494 35.125 25.875 C34.59261719 26.57882813 34.06023438 27.28265625 33.51171875 28.0078125 C33.01285156 28.66523438 32.51398437 29.32265625 32 30 C19.99103573 46.01195236 17.40378204 66.57863438 19.28515625 85.93359375 C21.17945206 97.13384761 25.8199827 107.56112111 32 117 C32.47308594 117.81855469 32.94617187 118.63710937 33.43359375 119.48046875 C41.48807744 132.43593504 54.37309089 140.83889748 68 147 C68 147.33 68 147.66 68 148 C45.56 148 23.12 148 0 148 C0 99.16 0 50.32 0 0 Z " fill="#FCFDFD" transform="translate(0,0)"/>
<path d="M0 0 C1.55563492 0.80695759 3.10342264 1.63052723 4.625 2.5 C4.625 3.16 4.625 3.82 4.625 4.5 C5.1096875 4.07847656 5.594375 3.65695313 6.09375 3.22265625 C10.96391033 -0.75776325 14.24997771 -2.70901712 20.625 -2.5 C23.625 -1 23.625 -1 25.625 1.5 C25.9375 5.25 25.9375 5.25 25.625 8.5 C23.315 8.5 21.005 8.5 18.625 8.5 C18.13 6.52 18.13 6.52 17.625 4.5 C15.315 4.5 13.005 4.5 10.625 4.5 C9.68889012 7.02749667 9.45427195 8.11301641 10.5625 10.625 C12.99053534 17.19497799 11.8742243 24.03348014 9.625 30.5 C8.965 30.5 8.305 30.5 7.625 30.5 C7.398125 31.0775 7.17125 31.655 6.9375 32.25 C3.76085799 37.69567202 -1.5638107 39.75830136 -7.375 41.5 C-10.25981214 42.02738379 -13.14174679 42.31453614 -16.0625 42.5625 C-20.7815953 42.98169844 -25.03998503 43.43937158 -29.375 45.5 C-29.417721 47.16611905 -29.41563832 48.83382885 -29.375 50.5 C-27.62171924 52.25328076 -25.11044961 51.79603627 -22.72265625 51.9296875 C-21.55283203 52.00316406 -20.38300781 52.07664063 -19.17773438 52.15234375 C-16.71973372 52.29866859 -14.26139633 52.43946135 -11.80273438 52.57421875 C-1.30850452 53.24978838 9.06135674 54.46476268 16.625 62.5 C19.54478911 67.2483439 20.79657064 73.01264349 19.625 78.5 C17.20921457 85.06441273 13.88303974 88.82091898 7.6875 92.0625 C3.28319748 93.98093852 -0.53476399 95.32713443 -5.375 95.5 C-6.73044922 95.55607422 -6.73044922 95.55607422 -8.11328125 95.61328125 C-17.76994978 95.84641556 -26.30124256 95.08952438 -34.375 89.5 C-35.24705078 88.91992188 -35.24705078 88.91992188 -36.13671875 88.328125 C-39.06847102 86.00459173 -40.21450512 84.34489088 -40.921875 80.62109375 C-41.14468642 75.57689079 -41.04724993 72.49877133 -38.1875 68.25 C-35.2059346 66.39480375 -33.80860355 66.00948521 -30.375 66.5 C-32.25 72.25 -32.25 72.25 -33.375 74.5 C-33.81696991 78.38933523 -33.53095304 80.21594267 -31.625 83.6875 C-28.53468958 87.55038803 -26.20601199 89.51816255 -21.375 90.5 C-18.10716689 90.74165489 -14.83841298 90.73099543 -11.5625 90.75 C-10.68529297 90.770625 -9.80808594 90.79125 -8.90429688 90.8125 C-2.17416953 90.85277002 2.76200278 89.98628706 8 85.4375 C11.10721712 81.73274113 10.96903132 78.61433977 10.89453125 73.9140625 C10.77937303 71.36423863 10.77937303 71.36423863 9.125 69 C1.31304953 64.31282972 -9.1633732 64.56634912 -17.99609375 63.73242188 C-25.04757292 62.99636782 -30.48668172 62.3123099 -35.75 57.1875 C-37.76058082 53.86230864 -38.07732319 52.3237596 -37.375 48.5 C-34.94684111 45.08745237 -32.85978855 42.82319237 -29.375 40.5 C-26.6875 40.375 -26.6875 40.375 -24.375 40.5 C-24.375 39.84 -24.375 39.18 -24.375 38.5 C-25.055625 38.335 -25.73625 38.17 -26.4375 38 C-30.95791833 35.69170128 -35.28772488 31.50414744 -37.05078125 26.6328125 C-38.07336403 19.90594266 -38.96377972 12.80628881 -34.875 7 C-25.80705095 -3.18798076 -12.41946624 -5.70972864 0 0 Z " fill="#F3F8F8" transform="translate(109.375,27.5)"/>
<path d="M0 0 C4.4868167 0.03990981 8.9626326 0.43502693 13.4375 0.75 C15.30825195 0.86214844 15.30825195 0.86214844 17.21679688 0.9765625 C27.80417992 1.71094745 38.36229721 2.88608552 46 11 C48.91978911 15.7483439 50.17157064 21.51264349 49 27 C46.58421457 33.56441273 43.25803974 37.32091898 37.0625 40.5625 C32.65819748 42.48093852 28.84023601 43.82713443 24 44 C22.64455078 44.05607422 22.64455078 44.05607422 21.26171875 44.11328125 C11.60505022 44.34641556 3.07375744 43.58952438 -5 38 C-5.87205078 37.41992188 -5.87205078 37.41992188 -6.76171875 36.828125 C-9.69347102 34.50459173 -10.83950512 32.84489088 -11.546875 29.12109375 C-11.76968642 24.07689079 -11.67224993 20.99877133 -8.8125 16.75 C-5.8309346 14.89480375 -4.43360355 14.50948521 -1 15 C-2.875 20.75 -2.875 20.75 -4 23 C-4.44196991 26.88933523 -4.15595304 28.71594267 -2.25 32.1875 C0.84031042 36.05038803 3.16898801 38.01816255 8 39 C11.26783311 39.24165489 14.53658702 39.23099543 17.8125 39.25 C18.68970703 39.270625 19.56691406 39.29125 20.47070312 39.3125 C27.20083047 39.35277002 32.13700278 38.48628706 37.375 33.9375 C40.48221712 30.23274113 40.34403132 27.11433977 40.26953125 22.4140625 C40.15437303 19.86423863 40.15437303 19.86423863 38.5 17.5 C30.62372432 12.77423459 20.01761856 13.03038905 11.11523438 12.14453125 C9.98794922 12.02464844 8.86066406 11.90476562 7.69921875 11.78125 C6.16527466 11.6275293 6.16527466 11.6275293 4.6003418 11.47070312 C2 11 2 11 -1 9 C-1.47114738 6.2572492 -1.17805784 3.80441103 -1 1 C-0.67 0.67 -0.34 0.34 0 0 Z " fill="#F3F8F7" transform="translate(80,79)"/>
<path d="M0 0 C4.04570508 2.52111306 6.28894209 5.22103669 7.66796875 9.7890625 C9.19593501 18.05645139 8.94574707 26.04615173 4.10546875 33.15625 C0.90926655 36.13452932 -1.59522646 37.38549226 -5.89453125 37.65625 C-10.16902581 37.39471305 -12.71958384 36.10968945 -15.89453125 33.15625 C-20.04658036 25.6825616 -20.23813911 16.59140946 -18.203125 8.359375 C-16.7040954 4.5208557 -15.43854578 2.55519399 -12.08203125 0.09375 C-7.75595504 -1.17862536 -4.26115789 -1.89775279 0 0 Z " fill="#0E616F" transform="translate(101.89453125,28.84375)"/>
<path d="M0 0 C-1.875 5.75 -1.875 5.75 -3 8 C-3.44196991 11.88933523 -3.15595304 13.71594267 -1.25 17.1875 C1.84031042 21.05038803 4.16898801 23.01816255 9 24 C12.26783311 24.24165489 15.53658702 24.23099543 18.8125 24.25 C19.68970703 24.270625 20.56691406 24.29125 21.47070312 24.3125 C28.16463576 24.35255345 32.69213892 23.23504127 38.3125 19.4375 C40.9261951 15.66216264 41.34947816 11.48517686 42 7 C42.33 7 42.66 7 43 7 C43.06058594 7.67546875 43.12117188 8.3509375 43.18359375 9.046875 C43.26738281 9.93890625 43.35117188 10.8309375 43.4375 11.75 C43.51871094 12.63171875 43.59992188 13.5134375 43.68359375 14.421875 C43.96238465 16.69350452 44.38790577 18.79851823 45 21 C33.17241053 28.6894006 21.73472106 30.66971948 7.6875 28.25 C3.12441901 27.19866614 -0.14174106 25.67110234 -4 23 C-4.87205078 22.41992188 -4.87205078 22.41992188 -5.76171875 21.828125 C-8.69347102 19.50459173 -9.83950512 17.84489088 -10.546875 14.12109375 C-10.76968642 9.07689079 -10.67224993 5.99877133 -7.8125 1.75 C-4.8309346 -0.10519625 -3.43360355 -0.49051479 0 0 Z " fill="#C0D8DC" transform="translate(79,94)"/>
<path d="M0 0 C0.66 0.66 1.32 1.32 2 2 C2.66 1.34 3.32 0.68 4 0 C4.33 1.98 4.66 3.96 5 6 C6.65 5.34 8.3 4.68 10 4 C10.391875 5.258125 10.78375 6.51625 11.1875 7.8125 C12.27423681 10.65512176 12.89641022 11.90528934 15.1875 14 C18.87450744 15.31093598 22.16770118 15.67496457 26 15 C29.70231632 13.14884184 31.51767858 11.96464284 33.375 8.25 C33.58125 7.5075 33.7875 6.765 34 6 C34.99552499 9.09718886 34.89921243 10.90271275 34 14 C34 14.99 34 15.98 34 17 C28.42045207 19.12217354 23.07421051 19.65876218 17.18945312 20.2109375 C13.13006998 20.63025045 9.73696181 21.22401815 6 23 C6.01160156 23.83144531 6.02320312 24.66289063 6.03515625 25.51953125 C6.04417969 26.60621094 6.05320312 27.69289063 6.0625 28.8125 C6.07410156 29.89144531 6.08570312 30.97039062 6.09765625 32.08203125 C6 35 6 35 5 38 C1.63629679 36.60812281 -0.21906331 35.20568604 -2 32 C-2.5 29.125 -2.5 29.125 -2 26 C0.42815889 22.58745237 2.51521145 20.32319237 6 18 C8.6875 17.875 8.6875 17.875 11 18 C11 17.34 11 16.68 11 16 C10.319375 15.835 9.63875 15.67 8.9375 15.5 C4.59944907 13.28482505 1.5770701 10.12942983 -1 6 C-0.9375 2.5 -0.9375 2.5 0 0 Z " fill="#E8F0F0" transform="translate(74,50)"/>
<path d="M0 0 C-0.33984375 1.890625 -0.33984375 1.890625 -1 4 C-3.5625 5.75 -3.5625 5.75 -6 7 C-6.5878125 5.8553125 -6.5878125 5.8553125 -7.1875 4.6875 C-9.2535705 1.62401615 -10.61823604 0.46030716 -14 -1 C-19.18170795 -1.56527723 -22.65744469 -0.92870009 -27 2 C-28.42557356 4.55721737 -28.42557356 4.55721737 -29 7 C-30.32 6.01 -31.64 5.02 -33 4 C-34.32 4.99 -35.64 5.98 -37 7 C-37.66 6.67 -38.32 6.34 -39 6 C-37.06008254 1.06202829 -33.4954086 -1.10911828 -29.0625 -3.75 C-19.08541702 -7.66258156 -8.92068357 -5.09753347 0 0 Z " fill="#E8F2F2" transform="translate(114,30)"/>
<path d="M0 0 C1.9375 1.125 1.9375 1.125 3 3 C3.1875 6.6875 3.1875 6.6875 3 10 C0.69 10 -1.62 10 -4 10 C-4.33 8.68 -4.66 7.36 -5 6 C-7.31 6 -9.62 6 -12 6 C-12.66 7.32 -13.32 8.64 -14 10 C-14.66 10 -15.32 10 -16 10 C-16.33 8.68 -16.66 7.36 -17 6 C-15.90081184 5.01524786 -14.7954398 4.03739527 -13.6875 3.0625 C-13.07261719 2.51722656 -12.45773438 1.97195312 -11.82421875 1.41015625 C-7.8854386 -1.63459672 -4.65102584 -0.99664839 0 0 Z " fill="#E5EDEE" transform="translate(132,26)"/>
<path d="M0 0 C0 0.66 0 1.32 0 2 C-9.41002278 6.59225513 -9.41002278 6.59225513 -14 6 C-14 5.01 -14 4.02 -14 3 C-17.3 2.67 -20.6 2.34 -24 2 C-23.67 1.01 -23.34 0.02 -23 -1 C-15.73691811 -2.32056034 -6.5620734 -3.96230208 0 0 Z " fill="#F7F9F9" transform="translate(120,85)"/>
<path d="M0 0 C-1.875 5.75 -1.875 5.75 -3 8 C-3.22622081 9.70363822 -3.40888473 11.41328701 -3.5625 13.125 C-3.64628906 14.03507812 -3.73007813 14.94515625 -3.81640625 15.8828125 C-3.87699219 16.58148438 -3.93757813 17.28015625 -4 18 C-4.66 18 -5.32 18 -6 18 C-6 17.01 -6 16.02 -6 15 C-7.32 15 -8.64 15 -10 15 C-10.77681874 6.10974106 -10.77681874 6.10974106 -7.8125 1.875 C-4.81690334 -0.12206444 -3.51088794 -0.50155542 0 0 Z " fill="#EEF6F6" transform="translate(79,94)"/>
<path d="M0 0 C0 1.32 0 2.64 0 4 C-0.94875 4.391875 -1.8975 4.78375 -2.875 5.1875 C-6.34127338 7.19793856 -6.9802693 8.22699642 -8 12 C-9.32 11.01 -10.64 10.02 -12 9 C-13.32 9.99 -14.64 10.98 -16 12 C-16.66 11.67 -17.32 11.34 -18 11 C-15.97400653 5.84292571 -12.28032047 3.62892935 -7.4375 1.25 C-4 0 -4 0 0 0 Z " fill="#E1EDEE" transform="translate(93,25)"/>
<path d="M0 0 C2.875 1.3125 2.875 1.3125 5 3 C2 5 2 5 -1 5 C-1 6.65 -1 8.3 -1 10 C-1.68449219 9.69320312 -2.36898437 9.38640625 -3.07421875 9.0703125 C-6.32877506 7.87972715 -9.38379086 7.35986796 -12.8125 6.875 C-13.97394531 6.70742187 -15.13539062 6.53984375 -16.33203125 6.3671875 C-17.21246094 6.24601562 -18.09289062 6.12484375 -19 6 C-19 5.67 -19 5.34 -19 5 C-18.13117188 4.89042969 -17.26234375 4.78085938 -16.3671875 4.66796875 C-9.19002012 3.75625539 -9.19002012 3.75625539 -2.5 1.1875 C-1.675 0.795625 -0.85 0.40375 0 0 Z " fill="#DFEDED" transform="translate(120,86)"/>
<path d="M0 0 C0.33 0 0.66 0 1 0 C1.06058594 0.67546875 1.12117188 1.3509375 1.18359375 2.046875 C1.26738281 2.93890625 1.35117188 3.8309375 1.4375 4.75 C1.55931641 6.07257813 1.55931641 6.07257813 1.68359375 7.421875 C1.96238465 9.69350452 2.38790577 11.79851823 3 14 C1.71186658 14.83878455 0.41936744 15.67086783 -0.875 16.5 C-1.59429687 16.9640625 -2.31359375 17.428125 -3.0546875 17.90625 C-5 19 -5 19 -7 19 C-5.77752628 16.45317975 -4.4575529 14.14523488 -2.9375 11.75 C-0.67352131 7.870096 -0.3121645 4.44834412 0 0 Z " fill="#C8E0E3" transform="translate(121,101)"/>
<path d="M0 0 C-7.59710939 3.2230161 -16.00703955 4.66432015 -24 2 C-24 1.34 -24 0.68 -24 0 C-20.75052139 -0.19738568 -17.50041127 -0.3811754 -14.25 -0.5625 C-13.32960938 -0.61857422 -12.40921875 -0.67464844 -11.4609375 -0.73242188 C-10.57148437 -0.78076172 -9.68203125 -0.82910156 -8.765625 -0.87890625 C-7.94868164 -0.9260376 -7.13173828 -0.97316895 -6.29003906 -1.02172852 C-4.02117925 -1.00020095 -2.16679079 -0.64612135 0 0 Z " fill="#E7F1F3" transform="translate(113,120)"/>
<path d="M0 0 C2.33944736 0.28730055 4.6739143 0.61936779 7 1 C7.33 2.32 7.66 3.64 8 5 C9.65 5 11.3 5 13 5 C12.67 6.32 12.34 7.64 12 9 C12 8.34 12 7.68 12 7 C11.236875 6.896875 10.47375 6.79375 9.6875 6.6875 C6.82940576 5.95635961 5.84257115 5.23048087 4 3 C3.01 3.33 2.02 3.66 1 4 C1.33 5.65 1.66 7.3 2 9 C1.01 9.495 1.01 9.495 0 10 C-2.08207071 5.59090909 -2.08207071 5.59090909 -1.6875 2.75 C-1 1 -1 1 0 0 Z " fill="#1C646E" transform="translate(120,31)"/>
<path d="M0 0 C2.82479247 2.64303638 3.56625028 4.09625254 4 8 C4.06955793 10.67301197 4.04534031 13.32492162 4 16 C3.34 16 2.68 16 2 16 C2 19.3 2 22.6 2 26 C1.67 26 1.34 26 1 26 C0.0197752 20.31160882 -0.11948801 14.82705667 -0.0625 9.0625 C-0.05573242 7.75055664 -0.05573242 7.75055664 -0.04882812 6.41210938 C-0.03714834 4.27470953 -0.01921689 2.13734537 0 0 Z " fill="#2E707E" transform="translate(18,64)"/>
<path d="M0 0 C4.3080351 5.24456447 4.10950972 9.4294171 4 16 C3.67 16 3.34 16 3 16 C2.67 14.35 2.34 12.7 2 11 C1.67 12.32 1.34 13.64 1 15 C0.01 14.67 -0.98 14.34 -2 14 C-2.125 8.25 -2.125 8.25 -1 6 C-1.39938767 3.90178785 -1.39938767 3.90178785 -2 2 C-1.34 2 -0.68 2 0 2 C0 1.34 0 0.68 0 0 Z " fill="#E2EEED" transform="translate(125,90)"/>
<path d="M0 0 C1.0828125 1.11375 1.0828125 1.11375 2.1875 2.25 C5.21356962 5.20882363 8.19117081 8.0955854 12 10 C12 10.66 12 11.32 12 12 C9 13 6 14 3 15 C2.67 13.68 2.34 12.36 2 11 C2.66 10.67 3.32 10.34 4 10 C4 8.68 4 7.36 4 6 C3.01 5.67 2.02 5.34 1 5 C0.67 3.35 0.34 1.7 0 0 Z " fill="#1D646E" transform="translate(73,56)"/>
<path d="M0 0 C0.99552499 3.09718886 0.89921243 4.90271275 0 8 C0 8.99 0 9.98 0 11 C-3.61973402 12.31626692 -6.09567131 13 -10 13 C-10 12.34 -10 11.68 -10 11 C-11.32 10.67 -12.64 10.34 -14 10 C-12.783125 9.773125 -11.56625 9.54625 -10.3125 9.3125 C-6.02920697 8.24927123 -3.7995683 6.47825152 -1 3 C-0.67 2.01 -0.34 1.02 0 0 Z " fill="#DBEAEB" transform="translate(108,56)"/>
<path d="M0 0 C0 0.66 0 1.32 0 2 C0.66 2.33 1.32 2.66 2 3 C-0.21360334 5.72443488 -1.34519719 6.90035609 -4.875 7.4375 C-8.41967293 6.94124579 -10.90759586 5.76708808 -14 4 C-14 3.67 -14 3.34 -14 3 C-13.30132812 2.86722656 -12.60265625 2.73445313 -11.8828125 2.59765625 C-10.51769531 2.33275391 -10.51769531 2.33275391 -9.125 2.0625 C-8.22007813 1.88847656 -7.31515625 1.71445313 -6.3828125 1.53515625 C-4.0328149 1.0073699 -2.39804152 0 0 0 Z " fill="#166473" transform="translate(118,119)"/>
<path d="M0 0 C0.66 0.66 1.32 1.32 2 2 C1.01 2.33 0.02 2.66 -1 3 C-1.67441131 4.6635479 -2.3400321 6.33066942 -3 8 C-4.875 10.3125 -4.875 10.3125 -7 12 C-8.32 12 -9.64 12 -11 12 C-11.99 13.485 -11.99 13.485 -13 15 C-13.99 14.34 -14.98 13.68 -16 13 C-15.34773437 12.56429687 -14.69546875 12.12859375 -14.0234375 11.6796875 C-8.82875924 8.13995099 -4.27398445 4.61140428 0 0 Z " fill="#DFECED" transform="translate(155,128)"/>
<path d="M0 0 C0.66 0 1.32 0 2 0 C3.65 2.97 5.3 5.94 7 9 C6.01 9.33 5.02 9.66 4 10 C4 10.66 4 11.32 4 12 C3.34 12 2.68 12 2 12 C2.33 10.68 2.66 9.36 3 8 C2.34 8 1.68 8 1 8 C0.67 8.99 0.34 9.98 0 11 C-1.34484451 8.31031097 -0.62094799 6.8977573 0 4 C0 2.68 0 1.36 0 0 Z " fill="#196573" transform="translate(161,27)"/>
<path d="M0 0 C0.99 0.99 1.98 1.98 3 3 C2.34 5.31 1.68 7.62 1 10 C0.67 9.34 0.34 8.68 0 8 C-0.66 8 -1.32 8 -2 8 C-2 8.66 -2 9.32 -2 10 C-3.65 10 -5.3 10 -7 10 C-6.57847656 9.44570312 -6.15695313 8.89140625 -5.72265625 8.3203125 C-5.17480469 7.59585938 -4.62695312 6.87140625 -4.0625 6.125 C-3.51722656 5.40570313 -2.97195312 4.68640625 -2.41015625 3.9453125 C-0.96035376 2.05642921 -0.96035376 2.05642921 0 0 Z " fill="#E6EEEE" transform="translate(164,117)"/>
<path d="M0 0 C1.32 0.66 2.64 1.32 4 2 C1.42215154 4.64752004 -0.91648098 6.94432065 -4 9 C-6.73990408 8.96856707 -9.28417854 8.44521663 -12 8 C-9.14521674 6.09681116 -7.58058692 5.5380901 -4.3125 4.875 C-3.50425781 4.70742187 -2.69601563 4.53984375 -1.86328125 4.3671875 C-1.24839844 4.24601562 -0.63351563 4.12484375 0 4 C0 2.68 0 1.36 0 0 Z " fill="#156573" transform="translate(116,109)"/>
<path d="M0 0 C2.58361518 -0.05407567 5.16609255 -0.093707 7.75 -0.125 C8.84441406 -0.15013672 8.84441406 -0.15013672 9.9609375 -0.17578125 C13.8044624 -0.21072239 16.74606772 -0.17499684 20 2 C15.53666744 2.66123445 11.13739402 3.11882576 6.625 3.25 C5.37589844 3.28867188 5.37589844 3.28867188 4.1015625 3.328125 C3.06128906 3.16570312 3.06128906 3.16570312 2 3 C1.34 2.01 0.68 1.02 0 0 Z " fill="#CFE2E2" transform="translate(92,81)"/>
<path d="M0 0 C8.2244898 -0.63265306 8.2244898 -0.63265306 11.375 1.9375 C11.91125 2.618125 12.4475 3.29875 13 4 C13.99 4.33 14.98 4.66 16 5 C15.67 5.99 15.34 6.98 15 8 C14.34 8 13.68 8 13 8 C13 7.34 13 6.68 13 6 C11.7315625 5.5978125 11.7315625 5.5978125 10.4375 5.1875 C6.86145933 3.9521405 3.46139092 2.523012 0 1 C0 0.67 0 0.34 0 0 Z " fill="#1F656E" transform="translate(101,24)"/>
<path d="M0 0 C2.79192205 -0.05380578 5.5828141 -0.09357669 8.375 -0.125 C9.1690625 -0.14175781 9.963125 -0.15851563 10.78125 -0.17578125 C12.85492015 -0.19335473 14.92883241 -0.10335168 17 0 C17.66 0.66 18.32 1.32 19 2 C18.34 2.66 17.68 3.32 17 4 C16.01 4 15.02 4 14 4 C14 3.34 14 2.68 14 2 C13.15695313 2.02320312 12.31390625 2.04640625 11.4453125 2.0703125 C9.80175781 2.09738281 9.80175781 2.09738281 8.125 2.125 C7.03445312 2.14820312 5.94390625 2.17140625 4.8203125 2.1953125 C2 2 2 2 0 0 Z " fill="#035761" transform="translate(90,123)"/>
<path d="M0 0 C0.66 0.33 1.32 0.66 2 1 C2 1.66 2 2.32 2 3 C2.99 3.66 3.98 4.32 5 5 C2.53721199 6.231394 0.7204945 6.07159196 -2 6 C-2.66 7.32 -3.32 8.64 -4 10 C-4.66 10 -5.32 10 -6 10 C-6.33 8.68 -6.66 7.36 -7 6 C-4.69 4.02 -2.38 2.04 0 0 Z " fill="#DCECEE" transform="translate(122,26)"/>
<path d="M0 0 C1.11074104 3.33222313 0.88927847 5.62074182 0 9 C-0.33 9.66 -0.66 10.32 -1 11 C-1.66 10.67 -2.32 10.34 -3 10 C-2.67 9.34 -2.34 8.68 -2 8 C-2.66 8.66 -3.32 9.32 -4 10 C-4.99 9.67 -5.98 9.34 -7 9 C-6.02180976 7.68677212 -5.0424189 6.37443848 -4.0625 5.0625 C-3.51722656 4.33160156 -2.97195312 3.60070312 -2.41015625 2.84765625 C-1 1 -1 1 0 0 Z " fill="#1B6772" transform="translate(38,21)"/>
<path d="M0 0 C2.64 0 5.28 0 8 0 C7.30058404 3.14737182 6.23921302 6.02588876 5 9 C2.67527795 6.14693203 1.2491742 3.45925163 0 0 Z " fill="#EDF6F6" transform="translate(166,32)"/>
<path d="M0 0 C-0.85714286 8.57142857 -0.85714286 8.57142857 -3 12 C-4 9 -4 9 -4.4375 6.375 C-4.7159375 5.199375 -4.7159375 5.199375 -5 4 C-5.66 3.67 -6.32 3.34 -7 3 C-4.49955934 -0.00052879 -4.2621484 0 0 0 Z " fill="#DDEBEC" transform="translate(81,70)"/>
<path d="M0 0 C0.99 0.495 0.99 0.495 2 1 C2 1.99 2 2.98 2 4 C2.66 4 3.32 4 4 4 C4.06058594 4.77085938 4.12117188 5.54171875 4.18359375 6.3359375 C4.26738281 7.33882813 4.35117188 8.34171875 4.4375 9.375 C4.51871094 10.37273437 4.59992188 11.37046875 4.68359375 12.3984375 C4.84965626 14.97927613 4.84965626 14.97927613 6 17 C5.01 16.67 4.02 16.34 3 16 C2.814375 14.88625 2.814375 14.88625 2.625 13.75 C2.15212322 11.05867476 2.15212322 11.05867476 0.9375 9.125 C-0.40862112 6.07379213 -0.12652313 3.28960139 0 0 Z " fill="#256A77" transform="translate(65,96)"/>
<path d="M0 0 C0.33 0 0.66 0 1 0 C1.24900646 1.93505023 1.47356242 3.87325934 1.6875 5.8125 C1.81511719 6.89144531 1.94273438 7.97039063 2.07421875 9.08203125 C2 12 2 12 0.51953125 13.88671875 C0.01808594 14.25410156 -0.48335938 14.62148438 -1 15 C-1.66 14.67 -2.32 14.34 -3 14 C-3 13.01 -3 12.02 -3 11 C-2.34 11 -1.68 11 -1 11 C-1.01160156 10.28972656 -1.02320312 9.57945313 -1.03515625 8.84765625 C-1.04417969 7.92855469 -1.05320312 7.00945313 -1.0625 6.0625 C-1.07410156 5.14597656 -1.08570312 4.22945312 -1.09765625 3.28515625 C-1 1 -1 1 0 0 Z " fill="#F8FCF8" transform="translate(81,43)"/>
<path d="M0 0 C3.3 0 6.6 0 10 0 C10.66 1.32 11.32 2.64 12 4 C9.5332355 4.88336837 8.36140628 5.1312406 5.859375 4.22265625 C5.16328125 3.83980469 4.4671875 3.45695313 3.75 3.0625 C3.04359375 2.68222656 2.3371875 2.30195312 1.609375 1.91015625 C1.07828125 1.60980469 0.5471875 1.30945313 0 1 C0 0.67 0 0.34 0 0 Z " fill="#E2EBEC" transform="translate(128,0)"/>
<path d="M0 0 C0.99 0.33 1.98 0.66 3 1 C3.6875 3.0625 3.6875 3.0625 4 5 C3.34 5 2.68 5 2 5 C2 5.66 2 6.32 2 7 C0.68 7 -0.64 7 -2 7 C-2 7.66 -2 8.32 -2 9 C-2.99 8.67 -3.98 8.34 -5 8 C-4.34 7.67 -3.68 7.34 -3 7 C-2.28272222 5.35448038 -1.61674772 3.68577711 -1 2 C-0.67 1.34 -0.34 0.68 0 0 Z " fill="#196775" transform="translate(117,96)"/>
<path d="M0 0 C3.97959184 3.97959184 3.97959184 3.97959184 4.0625 8.125 C4.041875 9.07375 4.02125 10.0225 4 11 C3.34 11 2.68 11 2 11 C1.67 12.65 1.34 14.3 1 16 C0.67 16 0.34 16 0 16 C0 10.72 0 5.44 0 0 Z " fill="#075666" transform="translate(121,37)"/>
<path d="M0 0 C1.98 0.66 3.96 1.32 6 2 C6 2.66 6 3.32 6 4 C2.7 4.66 -0.6 5.32 -4 6 C-3.67 4.68 -3.34 3.36 -3 2 C-2.01 2 -1.02 2 0 2 C0 1.34 0 0.68 0 0 Z " fill="#156572" transform="translate(76,87)"/>
<path d="M0 0 C2.72727273 5.09090909 2.72727273 5.09090909 3 8 C1.5625 10.25 1.5625 10.25 0 12 C-0.66 11.34 -1.32 10.68 -2 10 C-1.34 10 -0.68 10 0 10 C-0.350625 9.443125 -0.70125 8.88625 -1.0625 8.3125 C-2.22672585 5.44074289 -1.8706847 3.92866672 -1 1 C-0.67 0.67 -0.34 0.34 0 0 Z " fill="#DAE7E9" transform="translate(83,54)"/>
<path d="M0 0 C-0.33 0.99 -0.66 1.98 -1 3 C-7.625 2.25 -7.625 2.25 -11 0 C-7.07632508 -2.82504594 -4.32061114 -1.49559616 0 0 Z " fill="#CEE3E4" transform="translate(90,119)"/>
<path d="M0 0 C0.33 0 0.66 0 1 0 C1.33 5.28 1.66 10.56 2 16 C0.35 16.33 -1.3 16.66 -3 17 C-3 15.35 -3 13.7 -3 12 C-2.01 12 -1.02 12 0 12 C0 8.04 0 4.08 0 0 Z " fill="#075A65" transform="translate(67,102)"/>
<path d="M0 0 C5.75 0.875 5.75 0.875 8 2 C7.67 2.99 7.34 3.98 7 5 C4.03 4.505 4.03 4.505 1 4 C0.67 2.68 0.34 1.36 0 0 Z " fill="#E4EDF0" transform="translate(75,114)"/>
<path d="M0 0 C1.85776765 3.13498292 2.20140476 5.37471432 2 9 C0.68 9.33 -0.64 9.66 -2 10 C-2 7.03 -2 4.06 -2 1 C-1.34 0.67 -0.68 0.34 0 0 Z " fill="#FCFCFA" transform="translate(72,99)"/>
<path d="M0 0 C1.5 1 1.5 1 3 3 C3.27345479 5.71846235 3.13491285 8.25677199 3 11 C0.17661571 7.8083482 -0.62384955 5.23169259 -1 1 C-0.67 0.67 -0.34 0.34 0 0 Z " fill="#F2F8F7" transform="translate(119,90)"/>
<path d="M0 0 C0.66 0.33 1.32 0.66 2 1 C1.375 3.375 1.375 3.375 0 6 C-3.125 7.3125 -3.125 7.3125 -6 8 C-4.55746343 4.63408134 -2.66735273 2.48952921 0 0 Z " fill="#F0F6F5" transform="translate(120,112)"/>
<path d="M0 0 C0.7425 0.0825 1.485 0.165 2.25 0.25 C0.5 6 0.5 6 -1.75 8.25 C-1.42 6.27 -1.09 4.29 -0.75 2.25 C-2.73 2.91 -4.71 3.57 -6.75 4.25 C-3.42692308 0.31153846 -3.42692308 0.31153846 0 0 Z " fill="#BCD8DE" transform="translate(76.75,93.75)"/>
<path d="M0 0 C2.31 0 4.62 0 7 0 C6.67 0.66 6.34 1.32 6 2 C5.34 2 4.68 2 4 2 C3.34 3.32 2.68 4.64 2 6 C1.01 5.01 0.02 4.02 -1 3 C-0.67 2.01 -0.34 1.02 0 0 Z " fill="#E3EDEE" transform="translate(36,16)"/>
<path d="M0 0 C2.475 0.495 2.475 0.495 5 1 C5.33 2.65 5.66 4.3 6 6 C3.5625 5.625 3.5625 5.625 1 5 C0.67 4.34 0.34 3.68 0 3 C0.66 3 1.32 3 2 3 C2 2.34 2 1.68 2 1 C1.34 0.67 0.68 0.34 0 0 Z " fill="#055969" transform="translate(132,136)"/>
<path d="M0 0 C0 0.99 0 1.98 0 3 C-2.97 2.505 -2.97 2.505 -6 2 C-6 2.66 -6 3.32 -6 4 C-7.65 4 -9.3 4 -11 4 C-11 3.34 -11 2.68 -11 2 C-7.12315913 0.80712589 -4.08378077 0 0 0 Z " fill="#045662" transform="translate(86,90)"/>
<path d="M0 0 C3.3 0.33 6.6 0.66 10 1 C10 1.66 10 2.32 10 3 C7.03 3 4.06 3 1 3 C0.67 2.01 0.34 1.02 0 0 Z " fill="#F8FBFB" transform="translate(88,66)"/>
<path d="M0 0 C1.46132217 2.92264434 2.34099246 4.92463146 3 8 C2.01 8 1.02 8 0 8 C-0.33 8.66 -0.66 9.32 -1 10 C-1.66 10 -2.32 10 -3 10 C-2.01 6.7 -1.02 3.4 0 0 Z " fill="#1C6470" transform="translate(25,40)"/>
<path d="M0 0 C2.09350689 3.4019487 2.17942163 6.05272412 2 10 C1.01 9.67 0.02 9.34 -1 9 C-1.33 7.02 -1.66 5.04 -2 3 C-1.34 3 -0.68 3 0 3 C0 2.01 0 1.02 0 0 Z " fill="#DFEBEB" transform="translate(174,41)"/>
<path d="M0 0 C0.99 0.33 1.98 0.66 3 1 C3 1.66 3 2.32 3 3 C4.32 3.66 5.64 4.32 7 5 C7 5.66 7 6.32 7 7 C3.59687262 5.94124926 0.98646769 4.99097846 -2 3 C-2 2.34 -2 1.68 -2 1 C-1.34 0.67 -0.68 0.34 0 0 Z " fill="#1F656F" transform="translate(55,137)"/>
<path d="M0 0 C0.99 0.33 1.98 0.66 3 1 C3 1.33 3 1.66 3 2 C5.31 2.33 7.62 2.66 10 3 C10 3.66 10 4.32 10 5 C8.20759337 4.88610125 6.41605165 4.75852313 4.625 4.625 C3.12839844 4.52058594 3.12839844 4.52058594 1.6015625 4.4140625 C-1 4 -1 4 -3 2 C-2.01 2 -1.02 2 0 2 C0 1.34 0 0.68 0 0 Z " fill="#146677" transform="translate(89,122)"/>
<path d="M0 0 C3.96 1.98 3.96 1.98 8 4 C6.68 4.33 5.36 4.66 4 5 C3.01 5.66 2.02 6.32 1 7 C0.67 4.69 0.34 2.38 0 0 Z " fill="#E8F3F2" transform="translate(84,61)"/>
<path d="M0 0 C2.50037734 2.17424117 3.43628586 3.73045798 4 7 C2.35 7.33 0.7 7.66 -1 8 C-0.67 5.36 -0.34 2.72 0 0 Z " fill="#1B6571" transform="translate(105,32)"/>
<path d="M0 0 C2.97 0.33 5.94 0.66 9 1 C8.67 1.66 8.34 2.32 8 3 C5.03 3 2.06 3 -1 3 C-0.67 2.01 -0.34 1.02 0 0 Z " fill="#F2F5F7" transform="translate(93,25)"/>
<path d="M0 0 C1.65 1.65 3.3 3.3 5 5 C4.01 6.485 4.01 6.485 3 8 C2.01 7.67 1.02 7.34 0 7 C0 4.69 0 2.38 0 0 Z " fill="#EEF7F6" transform="translate(32,120)"/>
<path d="M0 0 C1.32 0 2.64 0 4 0 C4.33 0.33 4.66 0.66 5 1 C5.66 0.67 6.32 0.34 7 0 C7 0.66 7 1.32 7 2 C7.66 2 8.32 2 9 2 C8.67 3.32 8.34 4.64 8 6 C6.66402348 5.19185349 5.331275 4.37836819 4 3.5625 C3.2575 3.11003906 2.515 2.65757813 1.75 2.19140625 C1.1725 1.79824219 0.595 1.40507813 0 1 C0 0.67 0 0.34 0 0 Z " fill="#226978" transform="translate(118,84)"/>
<path d="M0 0 C0.625 1.8125 0.625 1.8125 1 4 C-1 7 -1 7 -3 7.8125 C-3.66 7.874375 -4.32 7.93625 -5 8 C-5.66 7.34 -6.32 6.68 -7 6 C-6.21625 5.566875 -5.4325 5.13375 -4.625 4.6875 C-1.78301625 3.10779753 -1.78301625 3.10779753 0 0 Z " fill="#246C76" transform="translate(125,112)"/>
<path d="M0 0 C0.66 0 1.32 0 2 0 C2.6875 3.25 2.6875 3.25 3 7 C2.01 8.32 1.02 9.64 0 11 C0 7.37 0 3.74 0 0 Z " fill="#1F6570" transform="translate(173,51)"/>
<path d="M0 0 C0 1.32 0 2.64 0 4 C-1.65 4.33 -3.3 4.66 -5 5 C-5 4.01 -5 3.02 -5 2 C-5.66 1.67 -6.32 1.34 -7 1 C-4 0 -4 0 0 0 Z " fill="#D9E8E9" transform="translate(93,25)"/>
<path d="M0 0 C3.60777515 0 5.06295544 0.9904432 8 3 C8.33 3.66 8.66 4.32 9 5 C8.34 5.66 7.68 6.32 7 7 C6.34 6.01 5.68 5.02 5 4 C2.44816596 2.79549696 2.44816596 2.79549696 0 2 C0 1.34 0 0.68 0 0 Z " fill="#236975" transform="translate(139,8)"/>
<path d="M0 0 C0.33 0 0.66 0 1 0 C1.66 3.96 2.32 7.92 3 12 C1.68 11.67 0.36 11.34 -1 11 C-0.67 7.37 -0.34 3.74 0 0 Z " fill="#E0EEEF" transform="translate(18,83)"/>
<path d="M0 0 C0.99 0 1.98 0 3 0 C3.33 1.65 3.66 3.3 4 5 C2.68 5.99 1.36 6.98 0 8 C0 5.36 0 2.72 0 0 Z " fill="#055764" transform="translate(83,44)"/>
<path d="M0 0 C0.66 0.66 1.32 1.32 2 2 C1.01 2.33 0.02 2.66 -1 3 C-1.309375 3.66 -1.61875 4.32 -1.9375 5 C-2.288125 5.66 -2.63875 6.32 -3 7 C-5.06640625 7.625 -5.06640625 7.625 -7 8 C-6.02133662 6.85373678 -5.04205413 5.70800212 -4.0625 4.5625 C-3.51722656 3.92441406 -2.97195312 3.28632813 -2.41015625 2.62890625 C-1.63204305 1.73008851 -0.84063472 0.84063472 0 0 Z " fill="#C8E0E1" transform="translate(155,128)"/>
<path d="M0 0 C0.99 1.32 1.98 2.64 3 4 C2.01 5.485 2.01 5.485 1 7 C0.34 7 -0.32 7 -1 7 C-1 6.34 -1 5.68 -1 5 C-1.66 4.67 -2.32 4.34 -3 4 C-2.01 2.68 -1.02 1.36 0 0 Z " fill="#216D7B" transform="translate(117,58)"/>
<path d="M0 0 C0.33 0.66 0.66 1.32 1 2 C1.99 2.33 2.98 2.66 4 3 C2.35 4.65 0.7 6.3 -1 8 C-0.67 5.36 -0.34 2.72 0 0 Z " fill="#1D6475" transform="translate(104,56)"/>
<path d="M0 0 C0.66 0.33 1.32 0.66 2 1 C2.625 3.0625 2.625 3.0625 3 5 C0.69 4.67 -1.62 4.34 -4 4 C-2.68 2.68 -1.36 1.36 0 0 Z " fill="#1D6572" transform="translate(51,9)"/>
<path d="M0 0 C0.66 0.33 1.32 0.66 2 1 C-0.75 3.0625 -0.75 3.0625 -4 5 C-6.203125 4.62109375 -6.203125 4.62109375 -8 4 C-6.71349294 3.30289269 -5.42059335 2.61757124 -4.125 1.9375 C-3.40570313 1.55464844 -2.68640625 1.17179688 -1.9453125 0.77734375 C-1.30335938 0.52082031 -0.66140625 0.26429688 0 0 Z " fill="#D4E2E7" transform="translate(136,143)"/>
<path d="M0 0 C1.65 0 3.3 0 5 0 C5.66 1.65 6.32 3.3 7 5 C6.01 5 5.02 5 4 5 C1.8125 2.5 1.8125 2.5 0 0 Z " fill="#1F656E" transform="translate(40,128)"/>
<path d="M0 0 C2.0625 2.3125 2.0625 2.3125 4 5 C3.67 5.99 3.34 6.98 3 8 C2.01 7.67 1.02 7.34 0 7 C-1.125 2.25 -1.125 2.25 0 0 Z " fill="#DCE7EA" transform="translate(26,109)"/>
<path d="M0 0 C0.33 0 0.66 0 1 0 C1 2.97 1 5.94 1 9 C0.01 9.495 0.01 9.495 -1 10 C-2.46726798 6.18510326 -1.43336419 3.70988378 0 0 Z " fill="#F8FCFC" transform="translate(127,99)"/>
<path d="M0 0 C0.33 0.66 0.66 1.32 1 2 C0.67 2.66 0.34 3.32 0 4 C-0.66 4 -1.32 4 -2 4 C-2 4.66 -2 5.32 -2 6 C-3.32 6.33 -4.64 6.66 -6 7 C-4.52307692 2.32307692 -4.52307692 2.32307692 -1.875 0.6875 C-1.25625 0.460625 -0.6375 0.23375 0 0 Z " fill="#D9E4E3" transform="translate(119,54)"/>
<path d="M0 0 C-1.26418246 0.69965443 -2.53665402 1.38434763 -3.8125 2.0625 C-4.52019531 2.44535156 -5.22789063 2.82820312 -5.95703125 3.22265625 C-8 4 -8 4 -11 3 C-10 1 -10 1 -6.625 -0.1875 C-3 -1 -3 -1 0 0 Z " fill="#E4F1F1" transform="translate(67,1)"/>
<path d="M0 0 C1.80411967 2.75924185 2.0127245 3.88972103 1.625 7.25 C1.41875 8.1575 1.2125 9.065 1 10 C-1 8 -1 8 -1.1875 5 C-1 2 -1 2 0 0 Z " fill="#C3DFE1" transform="translate(73,74)"/>
<path d="M0 0 C2.41201979 2.41201979 2.75925978 3.62963689 3 7 C2.01 8.32 1.02 9.64 0 11 C0 7.37 0 3.74 0 0 Z " fill="#267077" transform="translate(170,41)"/>
<path d="M0 0 C4.3177458 0.50797009 8.03302114 1.19682779 12 3 C12 3.33 12 3.66 12 4 C7.12335991 4.34833144 4.22949995 3.41685712 0 1 C0 0.67 0 0.34 0 0 Z " fill="#1B697B" transform="translate(104,122)"/>
<path d="M0 0 C0.66 0 1.32 0 2 0 C2.66 1.65 3.32 3.3 4 5 C3.34 5.66 2.68 6.32 2 7 C0 4 0 4 0 0 Z " fill="#FBF9F9" transform="translate(74,74)"/>
<path d="M0 0 C0.66 0.33 1.32 0.66 2 1 C2 1.66 2 2.32 2 3 C2.99 3.66 3.98 4.32 5 5 C4.01 5.495 4.01 5.495 3 6 C0.375 5.0625 0.375 5.0625 -2 4 C-1.34 2.68 -0.68 1.36 0 0 Z " fill="#CEE2E4" transform="translate(122,26)"/>
</svg>
