<?xml version="1.0" encoding="UTF-8"?>
<svg version="1.1" xmlns="http://www.w3.org/2000/svg" width="148" height="148">
<path d="M0 0 C48.84 0 97.68 0 148 0 C148 48.84 148 97.68 148 148 C99.16 148 50.32 148 0 148 C0 99.16 0 50.32 0 0 Z " fill="#DF1F25" transform="translate(0,0)"/>
<path d="M0 0 C3.26197 2.4498896 5.3994641 5.61307709 6.8671875 9.40234375 C6.9921875 12.15625 6.9921875 12.15625 6.8671875 14.40234375 C8.56488281 14.38494141 8.56488281 14.38494141 10.296875 14.3671875 C11.77864419 14.35780921 13.26041515 14.34870905 14.7421875 14.33984375 C15.48855469 14.33146484 16.23492187 14.32308594 17.00390625 14.31445312 C22.640625 14.2890625 22.640625 14.2890625 24.8671875 15.40234375 C25.14448027 28.88185363 24.37665165 42.0104196 22.8671875 55.40234375 C22.69769075 57.00648656 22.52841169 58.61065239 22.359375 60.21484375 C22.1968088 61.67334464 22.03282986 63.13168902 21.8671875 64.58984375 C21.7228125 65.86214844 21.5784375 67.13445312 21.4296875 68.4453125 C20.8671875 71.40234375 20.8671875 71.40234375 18.8671875 73.40234375 C16.43823242 73.65631104 16.43823242 73.65631104 13.34765625 73.66113281 C11.6157605 73.67058929 11.6157605 73.67058929 9.84887695 73.68023682 C8.59679443 73.67618835 7.34471191 73.67213989 6.0546875 73.66796875 C4.77489014 73.6698822 3.49509277 73.67179565 2.17651367 73.67376709 C-0.53374043 73.67671757 -3.24386277 73.6724233 -5.95410156 73.66308594 C-9.43130481 73.65169128 -12.90819932 73.65825118 -16.38539124 73.67023087 C-19.69705654 73.679188 -23.00863841 73.6729201 -26.3203125 73.66796875 C-28.19843628 73.67404144 -28.19843628 73.67404144 -30.11450195 73.68023682 C-31.26909912 73.6739325 -32.42369629 73.66762817 -33.61328125 73.66113281 C-34.63317139 73.65954163 -35.65306152 73.65795044 -36.70385742 73.65631104 C-39.1328125 73.40234375 -39.1328125 73.40234375 -41.1328125 71.40234375 C-43.07446938 64.18141066 -43.3767177 56.63448293 -43.73632812 49.19970703 C-44.06535943 42.70999742 -44.7246211 36.27580013 -45.47265625 29.82202148 C-46.77146091 18.36031636 -46.77146091 18.36031636 -44.1328125 14.40234375 C-42.25341797 14.06176758 -42.25341797 14.06176758 -40 14.109375 C-39.19433594 14.11904297 -38.38867188 14.12871094 -37.55859375 14.13867188 C-36.71683594 14.16380859 -35.87507813 14.18894531 -35.0078125 14.21484375 C-33.73357422 14.23514648 -33.73357422 14.23514648 -32.43359375 14.25585938 C-30.33306413 14.29126156 -28.23285957 14.34506974 -26.1328125 14.40234375 C-26.18566406 13.49871094 -26.23851563 12.59507813 -26.29296875 11.6640625 C-26.04641397 6.64276401 -23.61171087 3.87357935 -20.1328125 0.40234375 C-13.2171904 -3.62129093 -6.96609406 -3.80831212 0 0 Z " fill="#FDF9F9" transform="translate(84.1328125,36.59765625)"/>
<path d="M0 0 C0.33 0 0.66 0 1 0 C1.14695313 0.98226562 1.14695313 0.98226562 1.296875 1.984375 C4.58286576 22.04024965 13.65808939 40.01651609 30.30078125 52.2734375 C42.73884211 60.22947643 55.2670814 64.55559622 70 66 C70 66.33 70 66.66 70 67 C46.9 67 23.8 67 0 67 C0 44.89 0 22.78 0 0 Z " fill="#FEFBFB" transform="translate(0,81)"/>
<path d="M0 0 C0.33 0 0.66 0 1 0 C1 22.11 1 44.22 1 67 C-21.44 67 -43.88 67 -67 67 C-67 66.67 -67 66.34 -67 66 C-66.27296875 65.90203125 -65.5459375 65.8040625 -64.796875 65.703125 C-43.92636637 62.59930577 -25.81799198 53.09065598 -13 36 C-5.93136873 25.09822429 -1.02212975 13.03215426 0 0 Z " fill="#FEFBFB" transform="translate(147,81)"/>
<path d="M0 0 C22.11 0 44.22 0 67 0 C67 22.11 67 44.22 67 67 C66.67 67 66.34 67 66 67 C65.90203125 66.34515625 65.8040625 65.6903125 65.703125 65.015625 C62.33974615 44.48741614 52.84314135 26.63235601 36 14 C25.09822429 6.93136873 13.03215426 2.02212975 0 1 C0 0.67 0 0.34 0 0 Z " fill="#FEFCFC" transform="translate(81,0)"/>
<path d="M0 0 C21.78 0 43.56 0 66 0 C66 0.33 66 0.66 66 1 C65.12859375 1.15855469 64.2571875 1.31710938 63.359375 1.48046875 C42.50693043 5.56520086 24.9673601 15.54514734 12.74609375 33.25 C6.67122209 42.8175831 2.03387828 53.62733889 1 65 C0.67 65 0.34 65 0 65 C0 43.55 0 22.1 0 0 Z " fill="#FEFCFC" transform="translate(0,0)"/>
<path d="M0 0 C3.34265205 1.20706879 3.94704566 1.92056849 6 5 C6.43703804 8.93334232 6.30975023 11.33826088 4.625 14.9375 C1.15092894 17.66712726 -1.31428578 17.71699325 -5.6484375 17.48046875 C-8 17 -8 17 -10.625 14.9375 C-12.37452424 11.19988003 -12.72840345 9.07905929 -12 5 C-8.27065665 0.8266872 -5.60532832 -0.85298474 0 0 Z " fill="#DF1D22" transform="translate(90,74)"/>
<path d="M0 0 C1.67542976 0.28604898 3.34385343 0.61781233 5 1 C5.08107646 3.75059381 5.14052813 6.49879021 5.1875 9.25 C5.22520508 10.41595703 5.22520508 10.41595703 5.26367188 11.60546875 C5.30715209 14.99692573 5.26660505 17.4163511 3.84375 20.53125 C1.27032655 22.58126529 -0.44088392 22.40278193 -3.6875 22.25 C-4.68136719 22.21390625 -5.67523438 22.1778125 -6.69921875 22.140625 C-7.83810547 22.07101563 -7.83810547 22.07101563 -9 22 C-9.33 20.02 -9.66 18.04 -10 16 C-7.33333333 16 -4.66666667 16 -2 16 C-1.93941406 14.92878906 -1.87882812 13.85757813 -1.81640625 12.75390625 C-1.73201463 11.35675609 -1.64736594 9.95962143 -1.5625 8.5625 C-1.50352539 7.50192383 -1.50352539 7.50192383 -1.44335938 6.41992188 C-1.11328125 1.11328125 -1.11328125 1.11328125 0 0 Z " fill="#DE1A1F" transform="translate(62,69)"/>
<path d="M0 0 C2.56797879 0.61686323 3.53499495 1.36598707 5.2578125 3.33984375 C7.1953125 6.52734375 7.1953125 6.52734375 7.1953125 9.52734375 C0.9253125 9.52734375 -5.3446875 9.52734375 -11.8046875 9.52734375 C-10.28464032 1.92710784 -7.60905335 -0.31390484 0 0 Z " fill="#E0292F" transform="translate(76.8046875,41.47265625)"/>
<path d="M0 0 C1.65 0.33 3.3 0.66 5 1 C5 5.95 5 10.9 5 16 C3.35 16.33 1.7 16.66 0 17 C-1.75559942 15.24440058 -1.13221919 12.96417558 -1.13671875 10.62890625 C-1.13285156 9.92636719 -1.12898438 9.22382812 -1.125 8.5 C-1.12886719 7.79746094 -1.13273437 7.09492187 -1.13671875 6.37109375 C-1.12661378 1.12661378 -1.12661378 1.12661378 0 0 Z " fill="#DF1B21" transform="translate(71,74)"/>
<path d="M0 0 C2.625 0.375 2.625 0.375 5 1 C5.625 3.375 5.625 3.375 6 6 C5.34 6.66 4.68 7.32 4 8 C1.375 7.625 1.375 7.625 -1 7 C-1.625 4.625 -1.625 4.625 -2 2 C-1.34 1.34 -0.68 0.68 0 0 Z " fill="#F9E3E3" transform="translate(85,79)"/>
<path d="M0 0 C1.98 0 3.96 0 6 0 C5.67 1.65 5.34 3.3 5 5 C3.35 4.67 1.7 4.34 0 4 C0 2.68 0 1.36 0 0 Z " fill="#DE1619" transform="translate(70,67)"/>
</svg>
