<svg id="svg" version="1.1" viewBox="0 0 300 300" width="300" height="300" xmlns="http://www.w3.org/2000/svg"><svg xmlns="http://www.w3.org/2000/svg"><defs><clipPath id="clip-1"><rect x="0" y="0" transform="scale(0.14648,0.14648)" width="2048" height="2048" fill="none"/></clipPath><linearGradient x1="0.43019" y1="149.94141" x2="289.58789" y2="149.91357" gradientUnits="userSpaceOnUse" id="color-1"><stop offset="0" stop-color="#f74976"/><stop offset="1" stop-color="#ff83bd"/></linearGradient></defs><g clip-path="url(#clip-1)" fill="none" fill-rule="nonzero" stroke="none" stroke-width="1" stroke-linecap="butt" stroke-linejoin="miter" stroke-miterlimit="10" stroke-dasharray="" stroke-dashoffset="0" font-family="none" font-weight="none" font-size="none" text-anchor="none" style="mix-blend-mode: normal"><path d="M57.77637,0h184.46777c2.96777,0.54876 7.07666,0.43002 10.23047,0.7843c7.76953,0.87312 15.03369,2.73513 21.85254,6.67522c0.81152,0.46148 3.34424,1.93767 3.9873,2.54767c9.479,5.98963 17.34375,18.56297 19.61865,29.45276c0.85693,4.10273 1.3623,7.76924 1.62451,11.95767c0.08643,1.37388 0.17578,5.10308 0.44238,6.1875v184.89683c-0.01025,0.05127 -0.01904,0.10107 -0.0293,0.15234c-0.58447,10.82666 -1.57031,21.60791 -7.15723,31.19092c-0.83643,1.43555 -1.77246,3.19922 -2.81104,4.47363c-1.01953,1.65527 -3.1377,4.11768 -4.45166,5.47852c-6.62256,6.8584 -15.06152,11.69092 -24.32959,13.93213c-3.68848,0.85547 -7.43701,1.42969 -11.21191,1.72119c-1.20996,0.09814 -5.8418,0.3208 -6.76318,0.54932h-186.50684c-1.5958,-0.38672 -4.62876,-0.40723 -6.38906,-0.51562c-25.58716,-1.58203 -45.39847,-17.4873 -49.23637,-44.32471c-0.35736,-2.52832 -0.60236,-5.07129 -0.73428,-7.62158c-0.09519,-1.55566 -0.10296,-3.51123 -0.37954,-5.02002v-184.93169c0.26791,-1.33901 0.49897,-7.10244 0.66994,-8.99443c0.91337,-10.10728 3.67608,-19.07153 9.61714,-27.36489c8.26868,-11.54265 21.01472,-18.49333 35.00837,-20.15425c2.1022,-0.2915 4.20557,-0.49621 6.323,-0.64206c1.99116,-0.13715 4.20029,-0.05678 6.15791,-0.43074z" fill="url(#color-1)"/><path d="M278.31445,10.0072c9.479,5.98963 17.34375,18.56297 19.61865,29.45276c0.85693,4.10273 1.3623,7.76924 1.62451,11.95767c0.08643,1.37388 0.17578,5.10308 0.44238,6.1875v184.89683c-0.01025,0.05127 -0.01904,0.10107 -0.0293,0.15234c-0.58447,10.82666 -1.57031,21.60791 -7.15723,31.19092c-0.83643,1.43555 -1.77246,3.19922 -2.81104,4.47363l-0.26807,-0.42773l-0.1875,-0.02051c-0.42627,0.4248 -1.8501,2.43311 -2.02881,2.521c-1.28027,0.63135 -2.12549,2.29834 -2.96924,3.4248c-0.98877,0.06299 -1.08691,0.55225 -1.70508,1.28613c-0.53174,-0.00439 -1.23779,0.44531 -1.65381,0.76465l-0.00293,-0.22852c0.31641,-0.1333 0.4248,-0.18896 0.7207,-0.36475c0.12451,-1.13965 -0.26367,-2.21484 -0.26953,-3.31494c-0.00586,-1.36377 0.5625,-3.04102 0.78955,-4.47363c0.47021,-0.61523 -0.36182,-2.25586 -0.27832,-2.5957c0.56396,-2.28223 0.47021,-5.05957 0.26953,-7.42529c-0.1084,-1.27588 0.2417,-2.12988 0.20508,-2.87109c-0.66504,-0.77637 -0.51855,-0.67383 0.04395,-1.46484l-0.04834,-0.20215l-0.41309,-0.20947c0.10986,-1.70508 0.85254,-3.51709 0.11279,-5.19287c-0.40576,-0.91992 0.27686,-2.11084 0.25195,-2.66748c-0.1626,-1.71826 -0.18896,-3.61523 -0.19775,-5.31299c-0.00879,-1.61426 0.67676,-2.77588 -0.1084,-4.12939c-0.18164,-0.31494 0.59766,-3.14355 0.09814,-3.86279c-0.02197,-0.08057 -0.04248,-0.16113 -0.06299,-0.2417c0.2168,-0.55518 0.43945,-0.97119 0.30322,-1.52637l-0.28564,-0.07031c-0.10254,-0.95361 0.12451,-2.01416 0.25488,-2.99561c-0.19043,-0.22559 -0.07764,-0.1333 -0.33545,-0.27686c0.13037,-0.60645 0.48926,-0.81885 0.50537,-0.93457c0.06299,-0.46143 -0.47754,-1.51758 -0.46143,-2.00977c0.03955,-1.20264 0.45557,-1.771 0.31641,-3.01025c-0.25342,-0.11865 -0.14209,-0.04541 -0.33691,-0.21094c0.95215,-1.45459 0.34424,-0.96094 0.0498,-2.55469c0.05273,0.28271 0.33545,-0.49365 0.3457,-0.54199c-0.11719,-0.36768 -0.39404,-1.12939 -0.30615,-1.5c0.4292,-1.81494 0.1377,-3.15674 -0.104,-4.93066c-0.01025,-0.0791 0.3252,-0.12744 0.34863,-0.6665c-0.25635,-0.11719 -0.14355,-0.04541 -0.34277,-0.21094c0.15967,-0.2124 0.10107,-0.14209 0.25928,-0.32227l0.104,-0.11719c0.08936,-1.49561 -0.23145,-2.55615 -0.35303,-4.02539c-0.07764,-0.91699 0.34717,-2.14893 0.21533,-2.87256l-0.24023,-0.03516l-0.02783,-0.26074l0.34131,-0.35449c0.09814,-1.0166 -0.29297,-2.24707 -0.3457,-3.49805c0.27246,-0.07471 0.15381,-0.00293 0.3501,-0.22852c-0.12891,-0.87305 -0.23584,-1.60986 -0.30176,-2.49316c0.4834,-0.69141 0.3208,-0.64893 0.20508,-1.66699c-0.16406,-1.44287 0.01611,-2.88428 -0.11279,-4.33594c-0.00146,-0.0293 0.21533,-0.28564 0.24609,-0.32227l0.09814,-0.11572c-0.07471,-0.57861 0.02344,-0.30908 -0.37354,-0.80859c-0.11719,-0.52002 0.13623,-1.75781 0.23438,-2.34082c-0.26074,-0.11426 -0.14648,-0.04541 -0.34717,-0.19922c0.11133,-0.25049 0.21973,-0.43359 0.38379,-0.65186c-0.15088,-0.54346 -0.01172,-0.31055 -0.47461,-0.69727c-0.31494,0.01172 -0.38525,0.03516 -0.68408,0.12598l-0.02051,-0.25488c0.35889,-0.30615 0.50244,-0.19043 1.11475,-0.20068c0.18896,-0.51123 -0.41602,-3.06152 -0.56104,-3.76758c0.09521,-0.19043 0.16846,-0.28125 0.30469,-0.43799l-0.34717,-1.10889c0.20801,0.11572 0.31055,0.05566 0.62695,0.04834l0.06152,-0.32812c-0.2666,-0.64746 -0.32227,-0.71631 -0.35303,-1.39746c0.89941,-1.55273 0.08496,-1.95996 0.0791,-3.62695c-0.00439,-1.13232 0.55518,-3.20654 0.2417,-4.28906l-0.25781,-0.07178c-0.00732,-1.40479 0.27393,-3.00439 0.21533,-4.37256c-0.06885,-1.61279 -0.15381,-3.57568 -0.24756,-5.21484l0.31494,-0.52002c-0.0498,-0.74854 -0.32812,-2.55908 -0.26367,-3.22559c0.18164,-1.90283 0.68408,-2.08008 0.10986,-4.06055c-0.21387,-0.73389 0.02197,-2.25732 0.12012,-3.10547l-0.24316,-0.17139c-0.21387,-0.59033 0.41748,-1.77979 0.37939,-2.29541c-0.12744,-1.72998 -0.72656,-2.67773 -0.18604,-4.4502c0.31641,-1.40771 -0.16553,-2.96631 -0.17139,-4.40771c-0.00586,-1.68838 0.87744,-2.49243 0.08936,-4.0396c-0.40869,-0.80229 0.11426,-4.11533 0.21533,-5.18481l-0.33105,-0.15264c0.04541,-0.15337 0.10693,-0.40752 0.16406,-0.55605c0.49951,-1.30723 -0.646,-3.5792 0.15234,-4.96567c0.12012,-0.21035 -0.0542,-0.70283 -0.14648,-1.00254c-0.43799,-1.42778 0.19922,-3.58257 0.13916,-5.08066c-0.00146,-0.02197 -0.25195,-2.23857 -0.25488,-2.25015c-0.30615,-1.3957 0.32959,-2.15757 0.3208,-3.27275c-0.00732,-0.81592 -0.44531,-1.98457 -0.39697,-3.06255c0.23291,-0.27349 0.17285,-0.1856 0.34717,-0.5231c-0.67383,-1.74141 0.40283,-2.70439 -0.07324,-4.32905l-0.29443,0.05229c0.0498,-0.54214 -0.00732,-0.277 0.35156,-0.81489c-0.97412,-1.60942 0.87012,-2.87344 -0.37354,-4.41006c0.05713,-0.40254 -0.00879,-0.2127 0.29004,-0.54023c-0.59473,-2.89746 0.2168,-3.03882 0.03662,-5.11436c-0.78809,-0.81182 0.30762,-1.40361 -0.04541,-2.12549c-0.75879,-1.55405 0.88623,-2.45522 -0.26074,-4.33433c-0.19482,-0.3189 0.27979,-3.57026 0.27393,-4.11987c-0.01172,-1.24629 -0.31348,-2.48071 -0.23877,-3.72319c0.07471,-1.32642 0.5918,-3.60806 0.22559,-4.82153l-0.20068,-0.04307l-0.08057,-0.15601c0.11133,-0.2521 0.15381,-0.31992 0.36475,-0.49644c-0.44824,-0.86323 -0.42334,-1.05381 -0.10693,-1.98955c0.4585,-1.3522 -0.271,-2.47134 -0.16992,-4.13599c0.04395,-0.71792 0.29883,-2.56421 0.26367,-3.01743c-0.1377,-1.74023 -0.4043,-3.44077 -0.30029,-5.22715c0.06299,-1.08311 0.4292,-1.71621 0.44824,-2.81821c-1.31543,-1.76821 0.1875,-1.58555 -0.25342,-3.31582c-0.34424,-1.34839 0.16992,-1.25098 0.15674,-2.13823c-0.27832,-0.11528 -0.15381,-0.04336 -0.37646,-0.20801c-0.06152,-1.20967 0.29004,-1.59214 0.31787,-2.69722l-0.25781,-0.22368c-0.20654,-0.7686 0.38965,-1.48066 0.39697,-2.47837l-0.07764,-0.16025c-0.68555,-1.48271 -0.19043,-4.08296 0.04688,-5.66997c0.07471,-0.50259 -0.37939,-1.65791 -0.38965,-2.40498l0.35889,-0.35347l-0.05566,-0.22617l-0.2417,-0.03252c0.07617,-1.83545 0.08057,-3.76479 0.00586,-5.6061c-0.01611,-0.42964 0.31494,-0.58564 0.16699,-1.24849l-0.24756,-0.03267c-0.05127,-1.01133 0.91992,-1.78257 0.11133,-3.15044c-0.06006,-0.13579 -0.20361,-0.40591 -0.18604,-0.57524c0.34277,-3.38232 0.18604,-6.6208 0.21387,-10.03037c0.01904,-2.27065 -0.52441,-5.31826 -1.41357,-7.35308c-0.45996,-1.05044 -4.07959,-6.16673 -4.07812,-6.648c0.54639,-0.65641 0.10107,0.27215 1.19531,-0.46267z" fill="#fe81bb"/><path d="M272.68066,170.03613c-4.10889,7.54102 -12.70898,11.45801 -21.09668,9.60791c-8.3877,-1.8501 -14.54004,-9.02344 -15.09375,-17.59424c-0.55518,-8.5708 4.62451,-16.47568 12.70313,-19.39043c8.08008,-2.9146 17.1123,-0.13711 22.15869,6.81328c2.24268,0.8584 3.60498,4.95557 3.24609,7.26416c0.19482,0.90674 0.3252,1.82666 0.38818,2.75244l0.25928,0.08936c0.01465,0.83936 0,1.57617 -0.02637,2.4126c0.03223,-0.49658 0.0835,-1.78564 0.20361,-2.20166c0.14941,1.38867 0.38232,2.8916 0.36182,4.27295l0.13623,-0.42773l0.10107,0.03955c0.07324,0.51855 -2.34082,6.12744 -2.70703,6.62109l-0.22412,0.06738z" fill="#fefefe"/><path d="M274.98633,159.48926l0.25928,0.08936c0.01465,0.83936 0,1.57617 -0.02637,2.4126c0.03223,-0.49658 0.0835,-1.78564 0.20361,-2.20166c0.14941,1.38867 0.38232,2.8916 0.36182,4.27295l0.13623,-0.42773l0.10107,0.03955c0.07324,0.51855 -2.34082,6.12744 -2.70703,6.62109l-0.22412,0.06738l-0.41016,-0.32666c1.75635,-3.22559 2.55615,-6.8833 2.30566,-10.54687z" fill="#fe81bb"/><path d="M271.35205,149.47266c2.24268,0.8584 3.60498,4.95557 3.24609,7.26416c-0.56543,-2.62061 -1.67139,-5.09473 -3.24609,-7.26416z" fill="#fe81bb"/><path d="M255.43066,149.18408c13.99219,-0.71484 15.2373,22.2832 1.07666,23.24707c-2.93701,0.07764 -5.42725,-0.38818 -7.73877,-2.34961c-4.70654,-3.9917 -4.9585,-12.90088 -0.96973,-17.45361c2.12988,-2.43164 4.49561,-3.22412 7.63184,-3.44385z" fill="#fe81bb"/><path d="M38.82319,140.38931c0.38862,-0.02959 0.77798,-0.0479 1.16748,-0.05508c4.70259,-0.05801 7.8457,1.54146 11.13896,4.72354c0.15044,-0.15454 0.30293,-0.30718 0.45747,-0.45776c2.90566,-2.82422 6.53672,-4.23135 10.58481,-4.15503c4.0355,0.04731 7.87456,1.74917 10.61953,4.70757c1.72354,1.79766 2.9666,4.00225 3.61436,6.40752c0.92021,3.49512 0.42539,9.56982 0.502,13.35352c-0.03765,3.33105 -0.01172,6.69727 -0.04541,10.02393c-0.01128,1.12354 -0.26338,2.29248 -0.88008,3.15381c-1.92949,2.69531 -6.26001,2.08887 -7.3207,-1.02539c-0.54683,-1.60547 -0.33765,-3.89795 -0.31714,-5.49609l0.08687,-10.83838c0.02432,-3.479 0.63691,-7.39453 -2.15244,-9.97559c-3.23262,-3.39697 -9.99785,-1.28906 -10.65396,3.32813c-0.55371,3.89795 -0.31963,8.96045 -0.34175,12.98145c-0.04526,3.01172 0.59839,8.55322 -1.06289,11.05664c-1.22227,1.84131 -4.39146,2.12256 -6.05903,0.55664c-2.07114,-1.94238 -1.58145,-5.17383 -1.54761,-7.7915l0.10371,-10.26562c0.01626,-1.92773 0.11631,-3.8584 -0.07808,-5.79932c-0.70063,-6.9917 -10.35161,-8.07275 -12.56235,-1.43408c-0.59707,1.7915 -0.44575,3.93018 -0.45703,5.8374l-0.0356,10.81494c-0.00762,3.15967 0.72627,8.80078 -3.55986,9.49805c-2.348,0.38232 -4.84116,-1.36377 -4.89521,-3.84961c-0.10811,-4.98779 0.01304,-10.00928 -0.03633,-15.00586c-0.02593,-2.63086 -0.11411,-5.93701 0.43154,-8.49023c0.47988,-2.24268 1.46851,-4.34473 2.88955,-6.14443c2.67935,-3.37617 6.16611,-5.17969 10.40918,-5.65913z" fill="#fefefe"/><path d="M139.80586,140.68359c11.17852,-0.60161 18.04863,6.67969 18.67998,17.53271c0.10107,1.70947 0.23145,3.99756 -2.06836,4.12061c-2.80957,0.14941 -5.63232,0.03809 -8.44629,0.01318l-15.91787,-0.104c0.20098,2.2207 0.54551,3.68555 1.68647,5.67188c2.81572,4.90283 10.39687,5.89746 14.30024,1.81348c1.99512,-2.08594 2.79932,-3.8833 6.1084,-3.07764c3.20508,1.40186 3.62988,4.37109 1.45605,7.05029c-6.02783,7.49854 -18.83291,8.21484 -26.02998,2.20605c-9.77139,-8.15771 -8.50972,-28.46924 3.76099,-33.76479c2.22275,-0.95933 4.07915,-1.29932 6.47036,-1.46177z" fill="#fefefe"/><path d="M140.53696,148.43555c5.10542,-0.45703 7.77554,2.36133 9.23599,6.86133l-7.86621,-0.03516c-3.09873,-0.00439 -6.19746,-0.03369 -9.29561,-0.08643c1.42705,-4.01367 3.52793,-6.18018 7.92583,-6.73975z" fill="#fe81bb"/><path d="M99.12539,140.68345c0.10225,-0.00732 0.20464,-0.01304 0.30703,-0.01685c11.59937,-0.37119 18.10063,7.28555 18.45381,18.49307c0.05874,1.86475 -0.38613,3.1377 -2.46021,3.20801c-2.80547,0.09375 -5.61079,0.00146 -8.41831,-0.02051l-15.65859,-0.12012c0.69902,4.65381 2.26318,8.55908 7.41021,9.75293c2.94316,0.68115 6.27451,0.15088 8.45068,-2.08008c1.92524,-1.97461 2.92515,-4.02979 6.09199,-3.30029c1.6103,0.64453 2.72109,1.65088 2.99883,3.46143c0.22295,1.45459 -0.47007,2.5459 -1.35659,3.61816c-3.22588,3.82031 -7.13687,5.59863 -11.96792,6.11865c-11.25469,1.2085 -19.74785,-6.09668 -20.40776,-17.39502c-0.33882,-5.80078 0.63252,-11.60303 4.63726,-16.19136c3.22061,-3.68979 7.08325,-5.18628 11.91958,-5.52803z" fill="#fefefe"/><path d="M99.85474,148.43408c5.27417,-0.19775 7.71812,2.05957 9.26646,6.8584l-7.93711,-0.03223c-3.05596,0.01025 -6.11177,-0.02344 -9.1667,-0.09961c1.19707,-4.02979 3.67207,-6.16699 7.83735,-6.72656z" fill="#fe81bb"/><path d="M203.13574,120.00439c5.95313,0.31055 4.66113,6.37134 4.62451,10.72002c-0.0249,4.3686 -0.07178,8.73706 -0.14062,13.10522c5.7085,-4.39878 13.75195,-4.72778 19.37695,0.03076c6.01904,5.09077 3.93896,15.83101 4.23047,22.85347c0.12744,3.04102 0.03223,6.51563 -0.19043,9.53906c-0.14648,1.99072 -2.22803,3.5376 -4.2085,3.55664c-1.15723,0.00146 -2.26758,-0.4585 -3.08496,-1.27881c-0.58154,-0.58008 -0.9917,-1.24072 -1.1001,-2.04785c-0.30762,-2.30566 -0.16992,-5.06543 -0.15381,-7.42822l0.05127,-12.19043c-0.01904,-2.80518 -0.49951,-6.14355 -3.33105,-7.52783c-2.98242,-1.45752 -8.29834,-0.66504 -9.95068,2.44043c-1.96729,3.68848 -1.49561,7.29785 -1.74756,11.3335c-0.2666,4.25977 0.54346,10.229 -0.63867,14.28955c-0.56396,1.93652 -4.31396,2.9707 -5.87842,1.73877c-0.8335,-0.65771 -1.86768,-1.32715 -2.0874,-2.59424c-0.28564,-2.37158 -0.17578,-4.86914 -0.16113,-7.25977l0.11719,-14.62354l0.13037,-20.02075c0.0249,-3.21665 0.0293,-6.42407 0.1084,-9.64058c0.07031,-2.84429 1.08398,-4.43159 4.03418,-4.99541z" fill="#fefefe"/><path d="M177.22998,140.68286c3.67676,-0.16904 16.99219,1.36714 13.16016,8.35327c-2.10352,3.83643 -6.28125,0.87891 -9.29443,0.16406c-8.46826,-2.00977 -10.66992,4.30371 -1.46777,6.45264c6.22705,1.64941 13.91455,4.86182 13.46777,12.54199c-0.53174,9.12744 -7.74463,11.95898 -15.88623,11.65137c-4.38574,-0.36621 -17.28516,-3.36621 -11.83887,-10.02832c2.23535,-2.7334 6.1626,0.08643 8.56494,0.99023c1.63184,0.62109 3.36328,0.94043 5.11084,0.94336c1.59082,-0.01025 3.08643,-0.12305 4.22754,-1.35791c0.39551,-0.42773 1.01367,-1.33301 0.90088,-1.89697c-0.65479,-3.25488 -8.62354,-4.31689 -11.37451,-5.625c-1.83105,-0.69873 -3.34863,-1.5249 -4.88086,-2.76562c-4.46777,-3.61377 -4.22754,-10.875 -0.63281,-15.02183c2.55908,-2.95327 6.07617,-4.10991 9.94336,-4.40127z" fill="#fefefe"/></g></svg></svg>