<?xml version="1.0" encoding="UTF-8"?>
<svg version="1.1" xmlns="http://www.w3.org/2000/svg" width="225" height="225">
<path d="M0 0 C74.25 0 148.5 0 225 0 C225 74.25 225 148.5 225 225 C150.75 225 76.5 225 0 225 C0 150.75 0 76.5 0 0 Z " fill="#FCFCFC" transform="translate(0,0)"/>
<path d="M0 0 C5.63568661 4.68820934 10.83103966 9.69985408 15.99609375 14.8984375 C16.82963882 15.73339752 17.6631839 16.56835754 18.52198792 17.42861938 C21.16286524 20.07505848 23.80022896 22.72496759 26.4375 25.375 C28.23609649 27.17861643 30.03492227 28.98200425 31.83398438 30.78515625 C36.22531248 35.18746261 40.61376729 39.59261714 45 44 C43.51657 47.44677 41.56949812 49.67343301 38.91748047 52.30957031 C38.07675995 53.15013977 37.23603943 53.99070923 36.36984253 54.85675049 C35.00727829 56.20383087 35.00727829 56.20383087 33.6171875 57.578125 C32.68778351 58.5046991 31.75837952 59.43127319 30.80081177 60.38592529 C28.3359615 62.84315789 25.86516334 65.29432361 23.39306641 67.7442627 C20.86909235 70.24773809 18.35080612 72.75692063 15.83203125 75.265625 C10.89356403 80.18267525 5.948788 85.09333788 1 90 C-0.1065941 89.06122074 -1.21178799 88.12079084 -2.31640625 87.1796875 C-2.93201416 86.65616699 -3.54762207 86.13264648 -4.18188477 85.59326172 C-6.57236585 83.4984209 -8.78679163 81.28027529 -11 79 C-9.34071648 74.62842612 -6.04282878 71.85878141 -2.75 68.6875 C-1.6172261 67.58988115 -0.48701144 66.4896149 0.640625 65.38671875 C1.14110352 64.90420654 1.64158203 64.42169434 2.15722656 63.92456055 C4.89615235 61.06407407 7.42266096 58.00689555 10 55 C-10.79 54.67 -31.58 54.34 -53 54 C-53 48.06 -53 42.12 -53 36 C-32.21 35.67 -11.42 35.34 10 35 C2.74 27.74 -4.52 20.48 -12 13 C-8.04354855 8.38413998 -4.30058488 4.19819 0 0 Z " fill="#040404" transform="translate(53,68)"/>
<path d="M0 0 C1.10433586 0.94511484 2.20846118 1.89047569 3.3125 2.8359375 C3.92738281 3.3623584 4.54226562 3.8887793 5.17578125 4.43115234 C7.61670109 6.53036954 9.9218998 8.53225601 12 11 C9.42181094 21.31275624 -1.48335181 27.48335181 -9 35 C11.79 35.33 32.58 35.66 54 36 C54 41.94 54 47.88 54 54 C33.21 54.33 12.42 54.66 -9 55 C1.38257403 66.11369911 1.38257403 66.11369911 12 77 C10.46356148 80.68069887 8.21849055 82.98775204 5.375 85.75 C4.55773437 86.54921875 3.74046875 87.3484375 2.8984375 88.171875 C2.27195313 88.77515625 1.64546875 89.3784375 1 90 C-4.63568661 85.31179066 -9.83103966 80.30014592 -14.99609375 75.1015625 C-15.82963882 74.26660248 -16.6631839 73.43164246 -17.52198792 72.57138062 C-20.16286524 69.92494152 -22.80022896 67.27503241 -25.4375 64.625 C-27.23609649 62.82138357 -29.03492227 61.01799575 -30.83398438 59.21484375 C-35.22531248 54.81253739 -39.61376729 50.40738286 -44 46 C-42.51657 42.55323 -40.56949812 40.32656699 -37.91748047 37.69042969 C-36.65639969 36.4295755 -36.65639969 36.4295755 -35.36984253 35.14324951 C-34.46146637 34.24519592 -33.55309021 33.34714233 -32.6171875 32.421875 C-31.68778351 31.4953009 -30.75837952 30.56872681 -29.80081177 29.61407471 C-27.3359615 27.15684211 -24.86516334 24.70567639 -22.39306641 22.2557373 C-19.86909235 19.75226191 -17.35080612 17.24307937 -14.83203125 14.734375 C-9.89356403 9.81732475 -4.948788 4.90666212 0 0 Z " fill="#040404" transform="translate(171,68)"/>
<path d="M0 0 C28.71 0 57.42 0 87 0 C87 28.38 87 56.76 87 86 C81.39 86 75.78 86 70 86 C69.98541748 84.17831299 69.97083496 82.35662598 69.95581055 80.47973633 C69.90410923 74.4525912 69.83880999 68.42572119 69.76428509 62.39882374 C69.71960782 58.74564138 69.68034623 55.09256985 69.65356445 51.43920898 C69.62750455 47.91173821 69.58708408 44.38469454 69.53681374 40.85748863 C69.51207424 38.86072321 69.50210702 36.86379245 69.49235535 34.86689758 C69.47256119 33.64600937 69.45276703 32.42512115 69.43237305 31.16723633 C69.42126999 30.09468094 69.41016693 29.02212555 69.39872742 27.91706848 C68.93749556 24.54272088 68.07099161 22.6919021 66 20 C62.76771845 17.68329636 59.75716027 17.72874586 55.85449219 17.68115234 C54.61350769 17.66128265 53.37252319 17.64141296 52.09393311 17.62094116 C50.74491555 17.60906576 49.39589611 17.59740285 48.046875 17.5859375 C46.66252494 17.56722093 45.27818622 17.54764715 43.89385986 17.5272522 C40.25747373 17.47597638 36.62105063 17.43632654 32.98449707 17.39910889 C29.27082203 17.35904055 25.55730017 17.30796116 21.84375 17.2578125 C14.56259723 17.16110707 7.28138489 17.07770348 0 17 C0 11.39 0 5.78 0 0 Z " fill="#000000" transform="translate(138,0)"/>
<path d="M0 0 C28.71 0 57.42 0 87 0 C87 5.61 87 11.22 87 17 C85.14802002 17.01458252 83.29604004 17.02916504 81.38793945 17.04418945 C75.26101737 17.09588781 69.13435762 17.16118631 63.00767231 17.23571491 C59.29395541 17.28039482 55.58034761 17.31965586 51.86645508 17.34643555 C48.28063327 17.37249278 44.69523181 17.41291143 41.10967064 17.46318626 C39.74343288 17.47983879 38.37712244 17.49136315 37.0107975 17.49761391 C35.09342502 17.50727161 33.17618611 17.5370458 31.2590332 17.56762695 C29.62355278 17.58428154 29.62355278 17.58428154 27.95503235 17.60127258 C24.55786578 18.0596579 22.70656795 18.91237724 20 21 C17.70489608 24.21233267 17.72920811 27.17721244 17.68115234 31.05371094 C17.66128265 32.27467468 17.64141296 33.49563843 17.62094116 34.75360107 C17.60361435 36.72408417 17.60361435 36.72408417 17.5859375 38.734375 C17.56722054 40.096305 17.54764672 41.45822348 17.5272522 42.82012939 C17.4759805 46.39733067 17.43632848 49.97456952 17.39910889 53.55194092 C17.35903795 57.20529437 17.30795975 60.85849218 17.2578125 64.51171875 C17.16111195 71.67438036 17.07770651 78.83710253 17 86 C11.39 86 5.78 86 0 86 C0 57.62 0 29.24 0 0 Z " fill="#000000" transform="translate(0,0)"/>
<path d="M0 0 C5.61 0 11.22 0 17 0 C17 28.05 17 56.1 17 85 C-11.71 85 -40.42 85 -70 85 C-70 79.39 -70 73.78 -70 68 C-68.14802002 67.98541748 -66.29604004 67.97083496 -64.38793945 67.95581055 C-58.26101737 67.90411219 -52.13435762 67.83881369 -46.00767231 67.76428509 C-42.29395541 67.71960518 -38.58034761 67.68034414 -34.86645508 67.65356445 C-31.28063327 67.62750722 -27.69523181 67.58708857 -24.10967064 67.53681374 C-22.74343288 67.52016121 -21.37712244 67.50863685 -20.0107975 67.50238609 C-18.09342502 67.49272839 -16.17618611 67.4629542 -14.2590332 67.43237305 C-13.16871292 67.42126999 -12.07839264 67.41016693 -10.95503235 67.39872742 C-7.55786578 66.9403421 -5.70656795 66.08762276 -3 64 C-0.72656946 60.80791137 -0.72968114 57.88803671 -0.68115234 54.03808594 C-0.66128265 52.83714294 -0.64141296 51.63619995 -0.62094116 50.39886475 C-0.60938995 49.10708313 -0.59783875 47.81530151 -0.5859375 46.484375 C-0.56722013 45.14486505 -0.54764629 43.80536682 -0.5272522 42.46588135 C-0.47598476 38.94786497 -0.43633048 35.42981038 -0.39910889 31.91162109 C-0.35903526 28.31858918 -0.30795829 24.72571546 -0.2578125 21.1328125 C-0.16111714 14.08865151 -0.07770952 7.04439975 0 0 Z " fill="#000000" transform="translate(208,140)"/>
<path d="M0 0 C5.61 0 11.22 0 17 0 C17.01458252 1.79139404 17.02916504 3.58278809 17.04418945 5.4284668 C17.09589366 11.35581366 17.16119399 17.28292747 17.23571491 23.21002483 C17.28038946 26.80267265 17.31965162 30.39520784 17.34643555 33.98803711 C17.37249823 37.45715697 17.41292056 40.92584275 17.46318626 44.39469337 C17.48792221 46.35821845 17.49789227 48.32191158 17.50764465 50.28556824 C17.53733589 52.08686943 17.53733589 52.08686943 17.56762695 53.92456055 C17.57873001 54.97935104 17.58983307 56.03414154 17.60127258 57.12089539 C18.06542174 60.47239296 18.94562492 62.32285546 21 65 C24.23228155 67.31670364 27.24283973 67.27125414 31.14550781 67.31884766 C32.38649231 67.33871735 33.62747681 67.35858704 34.90606689 67.37905884 C36.25508445 67.39093424 37.60410389 67.40259715 38.953125 67.4140625 C40.33747506 67.43277907 41.72181378 67.45235285 43.10614014 67.4727478 C46.74252627 67.52402362 50.37894937 67.56367346 54.01550293 67.60089111 C57.72917797 67.64095945 61.44269983 67.69203884 65.15625 67.7421875 C72.43740277 67.83889293 79.71861511 67.92229652 87 68 C87 73.61 87 79.22 87 85 C58.29 85 29.58 85 0 85 C0 56.95 0 28.9 0 0 Z " fill="#000000" transform="translate(0,140)"/>
<path d="M0 0 C0.33 0 0.66 0 1 0 C1 7.59 1 15.18 1 23 C-6.59 23 -14.18 23 -22 23 C-22 22.67 -22 22.34 -22 22 C-21.03900391 21.77957031 -21.03900391 21.77957031 -20.05859375 21.5546875 C-12.97874608 19.71878065 -7.76531911 17.29973398 -3.71875 11.0078125 C-1.83191453 7.4363025 -0.5050841 4.04067281 0 0 Z " fill="#F6F6F6" transform="translate(224,202)"/>
<path d="M0 0 C0.33 0 0.66 0 1 0 C1.14695313 0.64066406 1.29390625 1.28132812 1.4453125 1.94140625 C3.26935299 8.97549341 5.66437168 14.33513404 12.02734375 18.24609375 C13.99301707 19.24540253 15.97276322 20.13411546 18 21 C19.32 21.66 20.64 22.32 22 23 C14.74 23 7.48 23 0 23 C0 15.41 0 7.82 0 0 Z " fill="#F7F7F7" transform="translate(0,202)"/>
<path d="M0 0 C7.59 0 15.18 0 23 0 C23 7.26 23 14.52 23 22 C21 18 21 18 20.17578125 16.0703125 C17.39978347 9.81489668 13.82320674 5.47905078 7.32421875 2.96484375 C4.89463164 2.22600184 2.47464871 1.56762566 0 1 C0 0.67 0 0.34 0 0 Z " fill="#F7F7F7" transform="translate(202,0)"/>
<path d="M0 0 C7.26 0 14.52 0 22 0 C18 2 18 2 16.0703125 2.82421875 C9.91401901 5.55622851 5.62425289 9.15082712 2.96484375 15.453125 C2.23144781 17.62261253 1.57302047 19.78331557 1 22 C0.67 22 0.34 22 0 22 C0 14.74 0 7.48 0 0 Z " fill="#F9F9F9" transform="translate(0,0)"/>
</svg>
