<?xml version="1.0" encoding="UTF-8"?>
<svg version="1.1" xmlns="http://www.w3.org/2000/svg" width="204" height="192">
<path d="M0 0 C67.32 0 134.64 0 204 0 C204 63.36 204 126.72 204 192 C136.68 192 69.36 192 0 192 C0 128.64 0 65.28 0 0 Z " fill="#FEFDFE" transform="translate(0,0)"/>
<path d="M0 0 C10.020489 5.90418854 17.63518741 18.51462575 22.74609375 28.66015625 C23.91381278 31.00211869 23.91381278 31.00211869 25.47265625 32.87109375 C27.10939553 35.15248226 28.14481651 37.49118987 29.20556641 40.08251953 C30.58760275 43.41826429 32.15174251 46.67040838 33.6875 49.9375 C34.00783203 50.62134766 34.32816406 51.30519531 34.65820312 52.00976562 C35.43778679 53.67365316 36.21874751 55.33689538 37 57 C39.07355329 54.32969736 40.86157941 51.64400896 42.5 48.6875 C43.10328125 47.61048828 43.10328125 47.61048828 43.71875 46.51171875 C45.0840332 43.91490348 45.0840332 43.91490348 46.34375 40.7734375 C50.95387185 29.86252253 57.55390159 19.39191899 64.8125 10.0625 C65.24369141 9.50232178 65.67488281 8.94214355 66.11914062 8.36499023 C69.4662926 4.2188531 73.20219288 0.54591358 78.5625 -0.5 C84.33394428 0.68388601 87.58168508 5.78123075 90.75 10.375 C91.38917358 11.2877771 91.38917358 11.2877771 92.04125977 12.21899414 C104.01945725 29.45299906 104.01945725 29.45299906 108 39 C108.89267922 40.82674425 109.82084222 42.63241493 110.75268555 44.43945312 C121.86227764 66.00049256 132.36782478 90.25241195 130 115 C128.58079308 119.38519607 126.93282207 123.41261706 123 126 C119.07129225 126.89288813 115.66202526 126.7263431 111.953125 125.10546875 C95.73522986 114.36922216 87.78632024 89.64440997 83.02734375 71.80859375 C81.58433428 66.45903394 79.80588125 61.23604675 78 56 C77.83177734 57.13308594 77.83177734 57.13308594 77.66015625 58.2890625 C75.68657746 69.30498592 71.50930961 79.13351532 67.10693359 89.37011719 C66.0220725 91.94755957 65.01401142 94.54578999 64.01171875 97.15625 C62.16181656 101.80183461 59.90977043 106.02131355 57.25 110.25 C56.81679443 110.9416626 56.38358887 111.6333252 55.93725586 112.34594727 C52.02565959 118.36284998 47.9254098 122.69153007 41 125 C34.8280292 125.50589925 31.92090967 125.08330802 27 121 C26.20335938 120.37544922 26.20335938 120.37544922 25.390625 119.73828125 C14.25650421 110.00869404 9.47762041 94.69692386 4.5 81.25 C4.23256989 80.53966614 3.96513977 79.82933228 3.68960571 79.09747314 C0.45504017 70.44445874 -1.88448582 62.34332042 -2 53 C-2.66 53 -3.32 53 -4 53 C-4.03758423 53.85440674 -4.03758423 53.85440674 -4.07592773 54.72607422 C-4.59935146 62.27328868 -6.62514811 68.99128714 -9.0625 76.125 C-9.4651709 77.31480469 -9.8678418 78.50460938 -10.28271484 79.73046875 C-13.47529457 88.93872537 -17.1538627 97.55160048 -22 106 C-22.89525391 107.56427734 -22.89525391 107.56427734 -23.80859375 109.16015625 C-27.70726297 115.61162892 -31.92847133 121.42850821 -38.375 125.5 C-42.41611742 126.26973665 -46.05479532 126.24359713 -50 125 C-53.09772378 122.55981193 -54.75183779 119.74448663 -56 116 C-57.01975646 96.13435964 -53.23870951 76.83930099 -44.02856445 59.10229492 C-42.91176369 56.81965277 -41.986645 54.50667202 -41.0703125 52.13671875 C-38.99589575 46.84766299 -36.52052443 41.83678121 -33.875 36.8125 C-33.39635498 35.90338867 -32.91770996 34.99427734 -32.42456055 34.05761719 C-13.16594713 -1.94251679 -13.16594713 -1.94251679 0 0 Z " fill="#F25513" transform="translate(65,31)"/>
<path d="M0 0 C16.32614847 6.14631472 28.064857 36.86837625 34.9921875 51.75 C36.08786122 54.27306518 37.1188511 56.79667393 38.0859375 59.37109375 C39.6063678 63.3622233 41.34269952 67.2645865 43.0390625 71.18359375 C43.9921875 73.75 43.9921875 73.75 43.9921875 76.75 C44.6521875 76.75 45.3121875 76.75 45.9921875 76.75 C50.00828585 86.25026627 52.62075471 100.62801127 49.359375 110.70532227 C47.77822211 114.48465133 46.45667691 117.47073065 42.9921875 119.75 C39.06347975 120.64288813 35.65421276 120.4763431 31.9453125 118.85546875 C15.15397816 107.73960542 7.38741356 82.15862797 2.54101562 63.71191406 C1.64577551 60.51166961 0.50952535 57.39193783 -0.5703125 54.25 C-6.16018111 36.95032043 -7.73487058 18.82547161 -7.0078125 0.75 C-4.54667852 -0.48056699 -2.6912667 -0.44668327 0 0 Z " fill="#F51CB2" transform="translate(145.0078125,37.25)"/>
<path d="M0 0 C0.33 0 0.66 0 1 0 C1.07516846 0.74983154 1.15033691 1.49966309 1.2277832 2.2722168 C1.58084269 5.74490244 1.94661498 9.21614314 2.3125 12.6875 C2.48942383 14.45577148 2.48942383 14.45577148 2.66992188 16.25976562 C3.30885035 22.23948088 4.16474885 27.94230829 5.66796875 33.76953125 C8.3434429 44.97826181 4.95534919 54.4554231 1.4375 65.125 C1.2137973 65.8118689 0.9900946 66.49873779 0.75961304 67.2064209 C-2.64779362 77.62471674 -6.43152861 87.52893883 -12 97 C-12.59554687 98.03769531 -13.19109375 99.07539063 -13.8046875 100.14453125 C-17.6967031 106.60527714 -21.92507558 112.42636353 -28.375 116.5 C-32.41611742 117.26973665 -36.05479532 117.24359713 -40 116 C-43.09772378 113.55981193 -44.75183779 110.74448663 -46 107 C-46.70635871 93.23958889 -45.50502134 81.10373599 -41 68 C-40.34 68 -39.68 68 -39 68 C-38.88269531 67.28199219 -38.76539063 66.56398438 -38.64453125 65.82421875 C-37.97617105 62.89558588 -36.97926284 60.52000291 -35.6875 57.8125 C-34.07943184 54.38740567 -32.60407385 50.99240327 -31.3125 47.4375 C-24.39853536 29.88666668 -13.2761926 13.2761926 0 0 Z " fill="#F51CB2" transform="translate(55,40)"/>
<path d="M0 0 C10.020489 5.90418854 17.63518741 18.51462575 22.74609375 28.66015625 C23.91381278 31.00211869 23.91381278 31.00211869 25.47265625 32.87109375 C27.10939553 35.15248226 28.14481651 37.49118987 29.20556641 40.08251953 C30.58760275 43.41826429 32.15174251 46.67040838 33.6875 49.9375 C34.00783203 50.62134766 34.32816406 51.30519531 34.65820312 52.00976562 C35.43778679 53.67365316 36.21874751 55.33689538 37 57 C37.66 57 38.32 57 39 57 C38.58771609 58.29307226 38.16979706 59.58434733 37.75 60.875 C37.51796875 61.59429687 37.2859375 62.31359375 37.046875 63.0546875 C36.43662086 64.77159653 35.79886451 66.48005639 35.09472656 68.16064453 C32.48799516 74.38399998 30.71908066 80.54647529 29.25 87.125 C28.91935547 88.55972656 28.91935547 88.55972656 28.58203125 90.0234375 C28.04751449 92.34742341 27.52029653 94.67279714 27 97 C26.34 97 25.68 97 25 97 C25.41005616 105.19033227 25.9053775 113.04043449 28 121 C15.228192 110.97103874 9.99907108 96.24657881 4.5625 81.4375 C4.30538239 80.74610931 4.04826477 80.05471863 3.78335571 79.34237671 C0.51594897 70.4834768 -1.84396651 61.81443342 -3.39282227 52.49584961 C-3.94591961 49.31136998 -4.66102033 46.24422489 -5.5 43.125 C-8.10594472 32.30136715 -8.84544095 21.05184015 -10 10 C-15.72929544 15.33271546 -20.26637701 20.82526673 -24.4375 27.4375 C-24.99171631 28.3042334 -25.54593262 29.1709668 -26.11694336 30.06396484 C-32.64013409 40.40029223 -38.81062769 51.09307144 -43.09375 62.57421875 C-44.23370329 65.62555924 -45.49102564 68.62094728 -46.75 71.625 C-47.17796875 72.64851563 -47.6059375 73.67203125 -48.046875 74.7265625 C-48.36140625 75.47679688 -48.6759375 76.22703125 -49 77 C-50.48468657 72.45295236 -48.76986329 69.50764377 -46.8125 65.375 C-46.19219707 64.02948033 -45.57373204 62.68311197 -44.95703125 61.3359375 C-44.63541016 60.63799072 -44.31378906 59.94004395 -43.98242188 59.22094727 C-42.94491091 56.87546086 -42.00964453 54.50422791 -41.08203125 52.11328125 C-38.99441237 46.83887094 -36.51649304 41.82912495 -33.875 36.8125 C-33.39635498 35.90338867 -32.91770996 34.99427734 -32.42456055 34.05761719 C-13.16594713 -1.94251679 -13.16594713 -1.94251679 0 0 Z " fill="#FE9131" transform="translate(65,31)"/>
<path d="M0 0 C10.020489 5.90418854 17.63518741 18.51462575 22.74609375 28.66015625 C23.98339962 30.96902297 25.42550441 32.91357824 27 35 C27.74207788 36.6777413 28.4809448 38.35756654 29.16796875 40.05859375 C30.38375089 42.89541874 31.85763596 45.5889011 33.328125 48.30078125 C33.54984375 48.86152344 33.7715625 49.42226562 34 50 C33.505 50.99 33.505 50.99 33 52 C27.22965491 43.69070306 27.22965491 43.69070306 25.125 39.1875 C20.04903179 28.63703715 10.46809621 11.59972643 -1 7 C-7.93251625 7.23500055 -10.61670988 9.67276928 -15.19140625 14.546875 C-26.83642923 28.33911847 -36.77868358 45.64633236 -43.09375 62.57421875 C-44.23370329 65.62555924 -45.49102564 68.62094728 -46.75 71.625 C-47.17796875 72.64851563 -47.6059375 73.67203125 -48.046875 74.7265625 C-48.36140625 75.47679688 -48.6759375 76.22703125 -49 77 C-50.48468657 72.45295236 -48.76986329 69.50764377 -46.8125 65.375 C-46.19219707 64.02948033 -45.57373204 62.68311197 -44.95703125 61.3359375 C-44.63541016 60.63799072 -44.31378906 59.94004395 -43.98242188 59.22094727 C-42.94491091 56.87546086 -42.00964453 54.50422791 -41.08203125 52.11328125 C-38.99441237 46.83887094 -36.51649304 41.82912495 -33.875 36.8125 C-33.39635498 35.90338867 -32.91770996 34.99427734 -32.42456055 34.05761719 C-13.16594713 -1.94251679 -13.16594713 -1.94251679 0 0 Z " fill="#A13329" transform="translate(65,31)"/>
<path d="M0 0 C4.12962264 2.86265715 6.92700276 6.28191007 9.75 10.375 C10.38917358 11.2877771 10.38917358 11.2877771 11.04125977 12.21899414 C23.01945725 29.45299906 23.01945725 29.45299906 27 39 C28.21110051 41.47834926 29.4861758 43.92320583 30.75 46.375 C33.69501681 52.17922311 36.39376342 58.04516958 38.875 64.0625 C39.16084961 64.7519873 39.44669922 65.44147461 39.74121094 66.15185547 C44.52907767 77.97208107 44.52907767 77.97208107 43 83 C42.79431396 82.47269287 42.58862793 81.94538574 42.37670898 81.40209961 C27.42322609 41.0158118 27.42322609 41.0158118 1 8 C-2.6170103 7.01281597 -4.83998549 6.5150441 -8.3359375 7.9765625 C-15.26824401 13.58084095 -22.13513277 21.4053983 -25 30 C-25.66 30 -26.32 30 -27 30 C-27.27070312 30.69996094 -27.54140625 31.39992188 -27.8203125 32.12109375 C-29.06665406 35.16266238 -30.43345956 38.10846247 -31.875 41.0625 C-32.36742188 42.08472656 -32.85984375 43.10695312 -33.3671875 44.16015625 C-34.96864914 46.94547351 -36.62628958 48.85749514 -39 51 C-35.19487743 38.98567781 -16.24392072 -3.3320863 0 0 Z " fill="#A2362B" transform="translate(146,31)"/>
<path d="M0 0 C1.05444336 1.86743164 1.05444336 1.86743164 2 4 C1.12890625 6.12109375 1.12890625 6.12109375 -0.4375 8.4375 C-5.76308877 16.71227065 -10.53139322 25.21763342 -14.0234375 34.43359375 C-15.20017912 37.52607074 -16.4720952 40.57302066 -17.75 43.625 C-18.17796875 44.64851563 -18.6059375 45.67203125 -19.046875 46.7265625 C-19.36140625 47.47679687 -19.6759375 48.22703125 -20 49 C-21.48495741 44.45212286 -19.76793525 41.5079586 -17.8125 37.375 C-17.14705075 35.92120688 -16.48298052 34.46678172 -15.8203125 33.01171875 C-15.4996582 32.31353027 -15.17900391 31.6153418 -14.84863281 30.89599609 C-13.86241977 28.69262139 -13.01425382 26.45505295 -12.1875 24.1875 C-10.78837543 20.75369292 -9.25624092 17.4516302 -7.53515625 14.16796875 C-6.8532019 12.86533081 -6.8532019 12.86533081 -6.1574707 11.53637695 C-4.11961602 7.68301114 -2.06810206 3.83721565 0 0 Z " fill="#A83F39" transform="translate(36,59)"/>
<path d="M0 0 C4.49365992 3.83282758 6.88477661 8.14574037 9.5703125 13.37890625 C10.88220884 15.78404955 12.35169431 17.82204483 14 20 C14.74207788 21.6777413 15.4809448 23.35756654 16.16796875 25.05859375 C17.38375089 27.89541874 18.85763596 30.5889011 20.328125 33.30078125 C20.54984375 33.86152344 20.7715625 34.42226562 21 35 C20.67 35.66 20.34 36.32 20 37 C14.22965491 28.69070306 14.22965491 28.69070306 12.125 24.1875 C9.84458572 19.38510213 6.80748698 15.10826405 3.8046875 10.734375 C1.14810263 6.70924641 0 4.91042191 0 0 Z " fill="#A33D31" transform="translate(78,46)"/>
<path d="M0 0 C0.99 0 1.98 0 3 0 C1.74209441 3.48343088 0.24326489 6.07400232 -2 9 C-2.33 9.99 -2.66 10.98 -3 12 C-3.66 12 -4.32 12 -5 12 C-5.27070312 12.69996094 -5.54140625 13.39992188 -5.8203125 14.12109375 C-7.06665406 17.16266238 -8.43345956 20.10846247 -9.875 23.0625 C-10.36742188 24.08472656 -10.85984375 25.10695313 -11.3671875 26.16015625 C-12.96864914 28.94547351 -14.62628958 30.85749514 -17 33 C-14.04710511 23.64687711 -9.23392966 15.19318666 -4.3125 6.75 C-3.932146 6.08170166 -3.55179199 5.41340332 -3.15991211 4.72485352 C-2.05078125 2.859375 -2.05078125 2.859375 0 0 Z " fill="#A63B2C" transform="translate(124,49)"/>
<path d="M0 0 C0.66 0 1.32 0 2 0 C3.31746333 2.58090767 4.62909617 5.16450458 5.9375 7.75 C6.31068359 8.47960937 6.68386719 9.20921875 7.06835938 9.9609375 C7.42607422 10.66992188 7.78378906 11.37890625 8.15234375 12.109375 C8.48226318 12.75874023 8.81218262 13.40810547 9.15209961 14.07714844 C10.01452116 16.03293079 10.54374179 17.91540694 11 20 C8.59451453 17.79671475 7.09407042 15.62232222 5.5625 12.75 C5.13710937 11.96238281 4.71171875 11.17476562 4.2734375 10.36328125 C3.85320312 9.58339844 3.43296875 8.80351563 3 8 C1.67851354 5.65969012 0.33878756 3.33048205 -1 1 C-0.67 0.67 -0.34 0.34 0 0 Z " fill="#AB4230" transform="translate(88,63)"/>
<path d="M0 0 C0.9861483 2.6135955 1.08441302 3.7594807 0.14453125 6.4375 C-4.29774731 14.98334966 -4.29774731 14.98334966 -8 18 C-6.65150163 13.64029169 -4.95092154 9.68658562 -2.875 5.625 C-2.33617188 4.56539063 -1.79734375 3.50578125 -1.2421875 2.4140625 C-0.83226563 1.61742188 -0.42234375 0.82078125 0 0 Z " fill="#BC5139" transform="translate(115,64)"/>
<path d="M0 0 C3.33511388 2.9901021 5.21521119 5.89498574 7 10 C7 10.66 7 11.32 7 12 C4 11 4 11 2.83203125 9.2578125 C2.49558594 8.55398437 2.15914062 7.85015625 1.8125 7.125 C1.46832031 6.42632812 1.12414062 5.72765625 0.76953125 5.0078125 C0 3 0 3 0 0 Z " fill="#9E2B20" transform="translate(168,64)"/>
<path d="M0 0 C2.99324263 1.0975223 3.84610901 1.67682892 5.25 4.625 C5.4975 5.40875 5.745 6.1925 6 7 C5.01 7 4.02 7 3 7 C0 2.77777778 0 2.77777778 0 0 Z " fill="#A03124" transform="translate(83,56)"/>
<path d="M0 0 C2.73704754 2.73704754 3.16182449 5.26044774 4 9 C3.55078125 11.2265625 3.55078125 11.2265625 3 13 C2.30329584 11.21189234 1.61788811 9.41937948 0.9375 7.625 C0.55464844 6.62726563 0.17179688 5.62953125 -0.22265625 4.6015625 C-1 2 -1 2 0 0 Z " fill="#AB4640" transform="translate(186,101)"/>
<path d="M0 0 C3.14958831 3.42346555 3.56179109 6.44262737 4 11 C0.85041169 7.57653445 0.43820891 4.55737263 0 0 Z " fill="#9F2E23" transform="translate(182,92)"/>
<path d="M0 0 C0.99 0 1.98 0 3 0 C4.75 2.375 4.75 2.375 6 5 C5.67 5.66 5.34 6.32 5 7 C4.34 7 3.68 7 3 7 C2.01 4.69 1.02 2.38 0 0 Z " fill="#A8483C" transform="translate(173,76)"/>
</svg>
