<?xml version="1.0" encoding="UTF-8"?>
<svg version="1.1" xmlns="http://www.w3.org/2000/svg" width="225" height="225">
<path d="M0 0 C74.25 0 148.5 0 225 0 C225 74.25 225 148.5 225 225 C150.75 225 76.5 225 0 225 C0 150.75 0 76.5 0 0 Z " fill="#FDFDFD" transform="translate(0,0)"/>
<path d="M0 0 C30.69 0 61.38 0 93 0 C93 12.21 93 24.42 93 37 C92 38 92 38 90.24729919 38.12025452 C89.48562943 38.11803391 88.72395966 38.11581329 87.93920898 38.11352539 C87.07839218 38.11344986 86.21757538 38.11337433 85.33067322 38.11329651 C84.39526199 38.10813522 83.45985077 38.10297394 82.49609375 38.09765625 C81.54307877 38.0962413 80.59006378 38.09482635 79.60816956 38.09336853 C76.55124835 38.08775152 73.49439923 38.07519616 70.4375 38.0625 C68.37044376 38.05748719 66.30338638 38.05292391 64.23632812 38.04882812 C59.15750167 38.03862558 54.07883194 38.01905356 49 38 C49 44.27 49 50.54 49 57 C52.09246094 56.98839844 55.18492188 56.97679687 58.37109375 56.96484375 C61.35294492 56.95705399 64.33479497 56.95097677 67.31665039 56.94506836 C69.39543156 56.94002712 71.47420916 56.93319426 73.55297852 56.92456055 C76.53402586 56.91248578 79.51502649 56.90676976 82.49609375 56.90234375 C83.89921059 56.89460182 83.89921059 56.89460182 85.33067322 56.88670349 C86.19149002 56.88662796 87.05230682 56.88655243 87.93920898 56.88647461 C88.70087875 56.884254 89.46254852 56.88203339 90.24729919 56.87974548 C92 57 92 57 93 58 C93.10099488 60.72724279 93.13970529 63.42862523 93.1328125 66.15625 C93.13376923 66.97371704 93.13472595 67.79118408 93.13571167 68.63342285 C93.13639345 70.36515378 93.13453929 72.09688724 93.13037109 73.82861328 C93.12502279 76.48866482 93.13031612 79.1485475 93.13671875 81.80859375 C93.13605797 83.48697954 93.1347768 85.16536523 93.1328125 86.84375 C93.13483673 87.64478149 93.13686096 88.44581299 93.13894653 89.27111816 C93.11495079 94.88504921 93.11495079 94.88504921 92 96 C90.64905018 96.09268999 89.29332909 96.11747326 87.93920898 96.11352539 C87.07839218 96.11344986 86.21757538 96.11337433 85.33067322 96.11329651 C84.39526199 96.10813522 83.45985077 96.10297394 82.49609375 96.09765625 C81.54307877 96.0962413 80.59006378 96.09482635 79.60816956 96.09336853 C76.55124835 96.08775152 73.49439923 96.07519616 70.4375 96.0625 C68.37044376 96.05748719 66.30338638 96.05292391 64.23632812 96.04882812 C59.15750167 96.03862558 54.07883194 96.01905356 49 96 C49 102.27 49 108.54 49 115 C52.09246094 114.98839844 55.18492188 114.97679687 58.37109375 114.96484375 C61.35294492 114.95705399 64.33479497 114.95097677 67.31665039 114.94506836 C69.39543156 114.94002712 71.47420916 114.93319426 73.55297852 114.92456055 C76.53402586 114.91248578 79.51502649 114.90676976 82.49609375 114.90234375 C83.89921059 114.89460182 83.89921059 114.89460182 85.33067322 114.88670349 C86.19149002 114.88662796 87.05230682 114.88655243 87.93920898 114.88647461 C88.70087875 114.884254 89.46254852 114.88203339 90.24729919 114.87974548 C92 115 92 115 93 116 C93 128.21 93 140.42 93 153 C62.31 153 31.62 153 0 153 C0 116 0 116 1 115 C2.35094982 114.90731001 3.70667091 114.88252674 5.06079102 114.88647461 C5.92160782 114.88655014 6.78242462 114.88662567 7.66932678 114.88670349 C8.60473801 114.89186478 9.54014923 114.89702606 10.50390625 114.90234375 C11.45692123 114.9037587 12.40993622 114.90517365 13.39183044 114.90663147 C16.44875165 114.91224848 19.50560077 114.92480384 22.5625 114.9375 C24.62955624 114.94251281 26.69661362 114.94707609 28.76367188 114.95117188 C33.84249833 114.96137442 38.92116806 114.98094644 44 115 C44 108.73 44 102.46 44 96 C40.90753906 96.01160156 37.81507812 96.02320313 34.62890625 96.03515625 C31.64705508 96.04294601 28.66520503 96.04902323 25.68334961 96.05493164 C23.60456844 96.05997288 21.52579084 96.06680574 19.44702148 96.07543945 C16.46597414 96.08751422 13.48497351 96.09323024 10.50390625 96.09765625 C9.10078941 96.10539818 9.10078941 96.10539818 7.66932678 96.11329651 C6.37810158 96.11340981 6.37810158 96.11340981 5.06079102 96.11352539 C4.29912125 96.115746 3.53745148 96.11796661 2.75270081 96.12025452 C1 96 1 96 0 95 C-0.10099488 92.27275721 -0.13970529 89.57137477 -0.1328125 86.84375 C-0.13376923 86.02628296 -0.13472595 85.20881592 -0.13571167 84.36657715 C-0.13639345 82.63484622 -0.13453929 80.90311276 -0.13037109 79.17138672 C-0.12502279 76.51133518 -0.13031612 73.8514525 -0.13671875 71.19140625 C-0.13605797 69.51302046 -0.1347768 67.83463477 -0.1328125 66.15625 C-0.13483673 65.35521851 -0.13686096 64.55418701 -0.13894653 63.72888184 C-0.11495079 58.11495079 -0.11495079 58.11495079 1 57 C2.35094982 56.90731001 3.70667091 56.88252674 5.06079102 56.88647461 C5.92160782 56.88655014 6.78242462 56.88662567 7.66932678 56.88670349 C8.60473801 56.89186478 9.54014923 56.89702606 10.50390625 56.90234375 C11.45692123 56.9037587 12.40993622 56.90517365 13.39183044 56.90663147 C16.44875165 56.91224848 19.50560077 56.92480384 22.5625 56.9375 C24.62955624 56.94251281 26.69661362 56.94707609 28.76367188 56.95117188 C33.84249833 56.96137442 38.92116806 56.98094644 44 57 C44 50.73 44 44.46 44 38 C40.90753906 38.01160156 37.81507812 38.02320313 34.62890625 38.03515625 C31.64705508 38.04294601 28.66520503 38.04902323 25.68334961 38.05493164 C23.60456844 38.05997288 21.52579084 38.06680574 19.44702148 38.07543945 C16.46597414 38.08751422 13.48497351 38.09323024 10.50390625 38.09765625 C9.10078941 38.10539818 9.10078941 38.10539818 7.66932678 38.11329651 C6.37810158 38.11340981 6.37810158 38.11340981 5.06079102 38.11352539 C4.29912125 38.115746 3.53745148 38.11796661 2.75270081 38.12025452 C1 38 1 38 0 37 C0 24.79 0 12.58 0 0 Z " fill="#0F0F0F" transform="translate(66,36)"/>
<path d="M0 0 C28.71 0 57.42 0 87 0 C87 10.23 87 20.46 87 31 C58.29 31 29.58 31 0 31 C0 20.77 0 10.54 0 0 Z " fill="#EE4955" transform="translate(69,155)"/>
<path d="M0 0 C28.71 0 57.42 0 87 0 C87 10.23 87 20.46 87 31 C58.29 31 29.58 31 0 31 C0 20.77 0 10.54 0 0 Z " fill="#A6CDEB" transform="translate(69,97)"/>
<path d="M0 0 C28.71 0 57.42 0 87 0 C87 10.23 87 20.46 87 31 C58.29 31 29.58 31 0 31 C0 20.77 0 10.54 0 0 Z " fill="#F0C65A" transform="translate(69,39)"/>
<path d="M0 0 C3.00945337 1.74231511 5.34339972 4.06770862 7.75390625 6.53515625 C8.26050781 7.03015625 8.76710938 7.52515625 9.2890625 8.03515625 C13.00390625 11.78003917 13.00390625 11.78003917 13.00390625 15.16015625 C9.00390625 14.16015625 9.00390625 14.16015625 1.00390625 7.16015625 C1.00390625 17.72015625 1.00390625 28.28015625 1.00390625 39.16015625 C0.01390625 39.16015625 -0.97609375 39.16015625 -1.99609375 39.16015625 C-1.99609375 28.60015625 -1.99609375 18.04015625 -1.99609375 7.16015625 C-4.63609375 9.47015625 -7.27609375 11.78015625 -9.99609375 14.16015625 C-11.31609375 14.49015625 -12.63609375 14.82015625 -13.99609375 15.16015625 C-13.54694638 10.78358069 -10.64918146 8.2978981 -7.68359375 5.34765625 C-7.19697266 4.83267578 -6.71035156 4.31769531 -6.20898438 3.78710938 C-2.6539533 0.2129395 -2.6539533 0.2129395 0 0 Z " fill="#010101" transform="translate(40.99609375,121.83984375)"/>
<path d="M0 0 C0.99 0 1.98 0 3 0 C3 10.56 3 21.12 3 32 C5.64 29.69 8.28 27.38 11 25 C12.32 24.67 13.64 24.34 15 24 C14.55085263 28.37657556 11.65308771 30.86225815 8.6875 33.8125 C8.20087891 34.32748047 7.71425781 34.84246094 7.21289062 35.37304688 C3.65785955 38.94721675 3.65785955 38.94721675 1.00390625 39.16015625 C-2.00554712 37.41784114 -4.33949347 35.09244763 -6.75 32.625 C-7.25660156 32.13 -7.76320312 31.635 -8.28515625 31.125 C-12 27.38011708 -12 27.38011708 -12 24 C-8 25 -8 25 0 32 C0 21.44 0 10.88 0 0 Z " fill="#010101" transform="translate(183,64)"/>
<path d="M0 0 C13.53 0 27.06 0 41 0 C41 1.32 41 2.64 41 4 C27.47 4 13.94 4 0 4 C0 2.68 0 1.36 0 0 Z " fill="#19140C" transform="translate(102,48)"/>
<path d="M0 0 C13.53 0 27.06 0 41 0 C41 0.99 41 1.98 41 3 C27.47 3 13.94 3 0 3 C0 2.01 0 1.02 0 0 Z " fill="#000001" transform="translate(102,106)"/>
<path d="M0 0 C13.53 0 27.06 0 41 0 C41 0.99 41 1.98 41 3 C27.47 3 13.94 3 0 3 C0 2.01 0 1.02 0 0 Z " fill="#000000" transform="translate(102,164)"/>
<path d="M0 0 C8.91 0 17.82 0 27 0 C27.33 1.32 27.66 2.64 28 4 C18.76 4 9.52 4 0 4 C0 2.68 0 1.36 0 0 Z " fill="#180809" transform="translate(82,173)"/>
<path d="M0 0 C9.24 0 18.48 0 28 0 C28 0.99 28 1.98 28 3 C18.76 3 9.52 3 0 3 C0 2.01 0 1.02 0 0 Z " fill="#000001" transform="translate(82,116)"/>
<path d="M0 0 C9.24 0 18.48 0 28 0 C28 0.99 28 1.98 28 3 C18.76 3 9.52 3 0 3 C0 2.01 0 1.02 0 0 Z " fill="#000000" transform="translate(82,58)"/>
<path d="M0 0 C4.62 0 9.24 0 14 0 C14 1.32 14 2.64 14 4 C9.38 4 4.76 4 0 4 C0 2.68 0 1.36 0 0 Z " fill="#1C170D" transform="translate(82,48)"/>
<path d="M0 0 C4.62 0 9.24 0 14 0 C14 0.99 14 1.98 14 3 C9.38 3 4.76 3 0 3 C0 2.01 0 1.02 0 0 Z " fill="#000102" transform="translate(82,106)"/>
<path d="M0 0 C4.62 0 9.24 0 14 0 C14 0.99 14 1.98 14 3 C9.38 3 4.76 3 0 3 C0 2.01 0 1.02 0 0 Z " fill="#000000" transform="translate(82,164)"/>
</svg>
