<?xml version="1.0" encoding="UTF-8"?>
<svg version="1.1" xmlns="http://www.w3.org/2000/svg" width="204" height="192">
<path d="M0 0 C67.32 0 134.64 0 204 0 C204 63.36 204 126.72 204 192 C136.68 192 69.36 192 0 192 C0 128.64 0 65.28 0 0 Z " fill="#FEFEFE" transform="translate(0,0)"/>
<path d="M0 0 C15.9061428 12.31670349 26.9323554 29.9423238 30 50 C31.52103801 70.78221037 26.98516765 91.67792557 13.484375 108.05078125 C3.49679777 119.44488463 -7.8684877 127.45823047 -22 133 C-22.928125 133.37125 -23.85625 133.7425 -24.8125 134.125 C-45.27327521 139.74168339 -66.07899461 136.00688089 -84.27929688 125.99023438 C-87.80232955 123.96279105 -90.91910034 121.63775656 -94 119 C-94.93972656 118.29037109 -94.93972656 118.29037109 -95.8984375 117.56640625 C-109.51638112 106.77432049 -117.54639619 89.70135844 -121 73 C-121.43683061 68.94783459 -121.52477322 64.94860702 -121.5 60.875 C-121.49500488 59.78622559 -121.49000977 58.69745117 -121.48486328 57.57568359 C-121.02114636 35.89611824 -111.2347393 18.41178029 -95.84375 3.484375 C-68.27627394 -20.59929914 -29.53752443 -20.82153362 0 0 Z " fill="#503CEB" transform="translate(148,22)"/>
<path d="M0 0 C0.86625 0.020625 1.7325 0.04125 2.625 0.0625 C5.69040722 0.09943584 5.69040722 0.09943584 9 -0.1875 C13.29076652 0.10841493 14.66494964 1.01787677 17.625 4.0625 C19.72284976 6.82784741 19.62804913 8.01981213 19.375 11.5625 C18.44263358 15.9135433 17.87920359 18.02330274 14.4375 20.875 C10.78065854 22.41899973 8.44114283 21.94314834 4.625 21.0625 C4.295 20.7325 3.965 20.4025 3.625 20.0625 C3.295 24.0225 2.965 27.9825 2.625 32.0625 C0.645 32.0625 -1.335 32.0625 -3.375 32.0625 C-3.39965504 27.66593827 -3.41783842 23.2694128 -3.42993164 18.87280273 C-3.43497121 17.37605082 -3.44180287 15.87930384 -3.45043945 14.38256836 C-3.46252159 12.23550193 -3.46823191 10.08850038 -3.47265625 7.94140625 C-3.47789307 6.6479126 -3.48312988 5.35441895 -3.48852539 4.02172852 C-3.33760864 0.08783181 -3.33760864 0.08783181 0 0 Z " fill="#EEECFC" transform="translate(106.375,71.9375)"/>
<path d="M0 0 C3.62416894 1.64734952 6.12851416 3.45402683 8 7 C8.58933019 10.47049999 8.58629468 12.81821387 7.00390625 16.0078125 C4.86356619 19.00307593 3.17799207 20.70503229 -0.44921875 21.61328125 C-5.05723578 21.85435837 -7.31914903 21.51411196 -11.0625 18.6875 C-14.0890814 14.48933871 -14.69274344 11.10898286 -14 6 C-10.29112677 0.95945419 -6.28440024 -1.04740004 0 0 Z " fill="#F5F4FD" transform="translate(94,72)"/>
<path d="M0 0 C1.65 0 3.3 0 5 0 C5 3.3 5 6.6 5 10 C5.66 9.67 6.32 9.34 7 9 C12.8125 8.34375 12.8125 8.34375 15 9 C18.9159363 13.42760045 19.53786328 17.16202096 19.25 22.875 C19.23195313 23.56335938 19.21390625 24.25171875 19.1953125 24.9609375 C19.14863748 26.6412381 19.07690939 28.32081163 19 30 C17.02 30 15.04 30 13 30 C12.67 25.05 12.34 20.1 12 15 C10.35 15 8.7 15 7 15 C5.05909174 16.94090826 5.60080565 20.47293902 5.4375 23.0625 C5.35371094 24.35285156 5.26992187 25.64320312 5.18359375 26.97265625 C5.12300781 27.97167969 5.06242187 28.97070312 5 30 C3.35 30 1.7 30 0 30 C0 20.1 0 10.2 0 0 Z " fill="#EEEDFC" transform="translate(59,63)"/>
<path d="M0 0 C1.98 0 3.96 0 6 0 C7.32 3.3 8.64 6.6 10 10 C12.61047801 8.694761 12.68066423 7.64173426 13.625 4.9375 C13.88539063 4.20402344 14.14578125 3.47054687 14.4140625 2.71484375 C14.60742188 2.14894531 14.80078125 1.58304687 15 1 C16.98 1 18.96 1 21 1 C17.66796342 11.73656231 13.18395139 22.03086272 8 32 C6.02 32 4.04 32 2 32 C2.20496094 31.41992188 2.40992188 30.83984375 2.62109375 30.2421875 C2.89050781 29.46101563 3.15992188 28.67984375 3.4375 27.875 C3.70433594 27.10929687 3.97117188 26.34359375 4.24609375 25.5546875 C6.14416508 19.12288104 5.80931679 15.36872974 3.0625 9.25 C0 2.17433481 0 2.17433481 0 0 Z " fill="#F1F0FC" transform="translate(146,72)"/>
<path d="M0 0 C2.28125 1.01953125 2.28125 1.01953125 4 2 C3.34 3.32 2.68 4.64 2 6 C-1.3 5.67 -4.6 5.34 -8 5 C-8 5.66 -8 6.32 -8 7 C-6.948125 7.103125 -5.89625 7.20625 -4.8125 7.3125 C-1.05256903 7.99052034 1.06847441 8.58580245 4 11 C5.125 13.375 5.125 13.375 5 16 C3.25 18.8125 3.25 18.8125 0 21 C-5.22318941 21.74616992 -9.54352385 21.9709841 -14 19 C-13.67 17.35 -13.34 15.7 -13 14 C-9.37 14.33 -5.74 14.66 -2 15 C-3.629375 14.360625 -5.25875 13.72125 -6.9375 13.0625 C-11.875 11.125 -11.875 11.125 -13 10 C-13.57623479 3.77666428 -13.57623479 3.77666428 -11.5625 1.0625 C-7.76304889 -0.51288217 -4.05769988 -0.55007551 0 0 Z " fill="#F2F0FC" transform="translate(141,72)"/>
<path d="M0 0 C0 1.65 0 3.3 0 5 C-3.63 4.67 -7.26 4.34 -11 4 C-11 4.66 -11 5.32 -11 6 C-10.38511719 6.12117188 -9.77023438 6.24234375 -9.13671875 6.3671875 C-8.32847656 6.53476563 -7.52023438 6.70234375 -6.6875 6.875 C-5.88699219 7.03742188 -5.08648437 7.19984375 -4.26171875 7.3671875 C-2 8 -2 8 1 10 C0.51171875 16.0546875 0.51171875 16.0546875 0 18 C-3.35197843 20.23465229 -4.57791246 20.27108649 -8.5 20.25 C-9.93859375 20.25773437 -9.93859375 20.25773437 -11.40625 20.265625 C-14 20 -14 20 -17 18 C-16.67 16.35 -16.34 14.7 -16 13 C-15.484375 13.165 -14.96875 13.33 -14.4375 13.5 C-11.26636124 14.15049 -8.22781666 14.0620734 -5 14 C-5 13.67 -5 13.34 -5 13 C-5.71027344 12.79503906 -6.42054687 12.59007813 -7.15234375 12.37890625 C-8.07144531 12.10949219 -8.99054687 11.84007813 -9.9375 11.5625 C-10.85402344 11.29566406 -11.77054688 11.02882813 -12.71484375 10.75390625 C-15 10 -15 10 -16 9 C-16.5789111 2.74776017 -16.5789111 2.74776017 -14.5 0.0625 C-9.9074162 -1.88934811 -4.71429027 -1.57143009 0 0 Z " fill="#F3F2FD" transform="translate(55,73)"/>
<path d="M0 0 C0.86625 0.2784375 0.86625 0.2784375 1.75 0.5625 C4.20692525 1.04023546 5.64397534 0.75729364 8 0 C8 1.98 8 3.96 8 6 C8.33 5.34 8.66 4.68 9 4 C11.64 4 14.28 4 17 4 C17.36363636 9.45454545 17.36363636 9.45454545 15.75 11.875 C14 13 14 13 10 13 C10 14.32 10 15.64 10 17 C9.01 17 8.02 17 7 17 C6.67 15.68 6.34 14.36 6 13 C3.69 13 1.38 13 -1 13 C-1.07654536 8.48382401 -1.10228696 4.40914783 0 0 Z " fill="#B9B9B9" transform="translate(89,169)"/>
<path d="M0 0 C1.39431504 2.78863007 1.25660094 4.92078868 1 8 C-2.23253796 10.15502531 -3.25150923 10.46856135 -7 10 C-8.8125 8.8125 -8.8125 8.8125 -10 7 C-10.42674516 4.15503228 -10.36066991 2.63647631 -8.9375 0.125 C-5.82997801 -1.67936761 -3.37200667 -0.81177938 0 0 Z " fill="#5642EB" transform="translate(95,78)"/>
<path d="M0 0 C1.8125 1.125 1.8125 1.125 3 3 C3.375 6.0625 3.375 6.0625 3 9 C-0.23253796 11.15502531 -1.25150923 11.46856135 -5 11 C-6.8125 9.8125 -6.8125 9.8125 -8 8 C-8.4334014 5.11065736 -8.42525784 3.64907776 -6.8125 1.1875 C-4.35092224 -0.42525784 -2.88934264 -0.4334014 0 0 Z " fill="#5642EB" transform="translate(117,77)"/>
<path d="M0 0 C-0.33 2.64 -0.66 5.28 -1 8 C-4.05263664 8.98120464 -5.94736336 8.98120464 -9 8 C-9.35880399 2.6179402 -9.35880399 2.6179402 -7.875 0.0625 C-5.07329973 -1.52513015 -3.03014356 -0.74070176 0 0 Z " fill="#8F8F8F" transform="translate(126,173)"/>
<path d="M0 0 C0.66 0 1.32 0 2 0 C2.33 1.98 2.66 3.96 3 6 C3.33 5.34 3.66 4.68 4 4 C4.99 4 5.98 4 7 4 C6.67 6.97 6.34 9.94 6 13 C5.01 13 4.02 13 3 13 C2.67 12.34 2.34 11.68 2 11 C1.67 11.66 1.34 12.32 1 13 C0.01 13 -0.98 13 -2 13 C-1.85851011 11.3954444 -1.71164314 9.79136233 -1.5625 8.1875 C-1.48128906 7.29417969 -1.40007812 6.40085938 -1.31640625 5.48046875 C-1 3 -1 3 0 0 Z " fill="#7C7C7C" transform="translate(109,169)"/>
<path d="M0 0 C2.64 0 5.28 0 8 0 C8 0.66 8 1.32 8 2 C6.02 2 4.04 2 2 2 C2 3.32 2 4.64 2 6 C3.32 6 4.64 6 6 6 C6 6.66 6 7.32 6 8 C4.35 8 2.7 8 1 8 C1 9.65 1 11.3 1 13 C0.01 13 -0.98 13 -2 13 C-1.34 8.71 -0.68 4.42 0 0 Z " fill="#7C7C7C" transform="translate(80,169)"/>
<path d="M0 0 C4.455 0.99 4.455 0.99 9 2 C8.34 3.98 7.68 5.96 7 8 C6.01 8 5.02 8 4 8 C3.67 7.67 3.34 7.34 3 7 C1.68 7 0.36 7 -1 7 C-0.67 4.69 -0.34 2.38 0 0 Z " fill="#B2B2B2" transform="translate(66,175)"/>
<path d="M0 0 C2.97 0.495 2.97 0.495 6 1 C6 2.65 6 4.3 6 6 C3.69 6.33 1.38 6.66 -1 7 C-0.67 4.69 -0.34 2.38 0 0 Z " fill="#7E7E7E" transform="translate(98,173)"/>
<path d="M0 0 C1.32 0 2.64 0 4 0 C4.36363636 5.45454545 4.36363636 5.45454545 2.75 7.875 C1 9 1 9 -3 9 C-3 9.99 -3 10.98 -3 12 C-3.66 12 -4.32 12 -5 12 C-5 10.35 -5 8.7 -5 7 C-0.25 6 -0.25 6 2 6 C2 4.35 2 2.7 2 1 C1.34 0.67 0.68 0.34 0 0 Z " fill="#6D6D6D" transform="translate(102,173)"/>
<path d="M0 0 C0.66 0 1.32 0 2 0 C2.5625 1.9375 2.5625 1.9375 3 4 C2.67 4.33 2.34 4.66 2 5 C1.95907063 7.33297433 1.95758277 9.66705225 2 12 C0.68 11.67 -0.64 11.34 -2 11 C-2.25 3.375 -2.25 3.375 0 0 Z " fill="#787878" transform="translate(136,170)"/>
<path d="M0 0 C0.99 0 1.98 0 3 0 C2.67 4.29 2.34 8.58 2 13 C1.01 13 0.02 13 -1 13 C-1.07654536 8.48382401 -1.10228696 4.40914783 0 0 Z " fill="#7E7E7E" transform="translate(89,169)"/>
<path d="M0 0 C3.63 0 7.26 0 11 0 C10.67 1.32 10.34 2.64 10 4 C6.7 3.34 3.4 2.68 0 2 C0 1.34 0 0.68 0 0 Z " fill="#5B47EC" transform="translate(133,77)"/>
<path d="M0 0 C1.98 0 3.96 0 6 0 C6 0.66 6 1.32 6 2 C5.01 2.66 4.02 3.32 3 4 C2.27034634 6.56282742 2.27034634 6.56282742 2 9 C1.34 9 0.68 9 0 9 C0 6.03 0 3.06 0 0 Z " fill="#797979" transform="translate(127,173)"/>
<path d="M0 0 C2.97 0.495 2.97 0.495 6 1 C5.34 2.98 4.68 4.96 4 7 C3.01 7 2.02 7 1 7 C0.67 4.69 0.34 2.38 0 0 Z " fill="#C3C3C3" transform="translate(69,176)"/>
<path d="M0 0 C2.64 0 5.28 0 8 0 C8 0.66 8 1.32 8 2 C6.02 2 4.04 2 2 2 C1.67 2.99 1.34 3.98 1 5 C0.67 5 0.34 5 0 5 C0 3.35 0 1.7 0 0 Z " fill="#727272" transform="translate(80,169)"/>
<path d="M0 0 C0.66 0.66 1.32 1.32 2 2 C2.33 1.34 2.66 0.68 3 0 C3.99 0 4.98 0 6 0 C5.34 1.98 4.68 3.96 4 6 C3.67 5.34 3.34 4.68 3 4 C2.01 4 1.02 4 0 4 C0 2.68 0 1.36 0 0 Z " fill="#848484" transform="translate(110,173)"/>
<path d="M0 0 C0.99 0 1.98 0 3 0 C3 1.32 3 2.64 3 4 C1.68 4.33 0.36 4.66 -1 5 C-0.67 3.35 -0.34 1.7 0 0 Z " fill="#E4E4E4" transform="translate(101,175)"/>
</svg>
