<?xml version="1.0" encoding="UTF-8"?>
<svg version="1.1" xmlns="http://www.w3.org/2000/svg" width="204" height="192">
<path d="M0 0 C67.32 0 134.64 0 204 0 C204 63.36 204 126.72 204 192 C136.68 192 69.36 192 0 192 C0 128.64 0 65.28 0 0 Z " fill="#FF2241" transform="translate(0,0)"/>
<path d="M0 0 C1.80615234 0.18945312 1.80615234 0.18945312 4 1 C5.58056641 3.13867188 5.58056641 3.13867188 7.1015625 5.96875 C7.66915283 7.00660645 8.23674316 8.04446289 8.8215332 9.11376953 C9.41667725 10.23122559 10.01182129 11.34868164 10.625 12.5 C11.88010865 14.80024458 13.13662403 17.09972214 14.39453125 19.3984375 C15.00893066 20.52862305 15.62333008 21.65880859 16.25634766 22.82324219 C18.53245957 26.97008736 20.89795545 31.05758157 23.3125 35.125 C23.7051001 35.78757813 24.0977002 36.45015625 24.50219727 37.1328125 C25.6651901 39.09031078 26.83238261 41.04525745 28 43 C28.8594274 44.44528134 29.71880161 45.89059432 30.578125 47.3359375 C31.40586496 48.72418799 32.23397562 50.11221752 33.0625 51.5 C33.44510986 52.14211426 33.82771973 52.78422852 34.22192383 53.44580078 C35.88787548 56.3885104 35.88787548 56.3885104 38 59 C40.14668285 59.12396871 42.29742387 59.1780072 44.44750977 59.20532227 C45.12065216 59.21522186 45.79379456 59.22512146 46.48733521 59.23532104 C48.72198925 59.26701838 50.95666458 59.29172574 53.19140625 59.31640625 C54.73697984 59.33696869 56.28254772 59.35796496 57.82810974 59.37937927 C61.90350732 59.43467337 65.97895625 59.48405013 70.05444336 59.53222656 C74.2101704 59.58238817 78.36582252 59.63810204 82.52148438 59.69335938 C90.6809263 59.80103064 98.84043076 59.90245552 107 60 C107.60424805 61.84667969 107.60424805 61.84667969 108 64 C106.33203125 66.453125 106.33203125 66.453125 103.8125 69.25 C102.87787171 70.31583058 101.94705785 71.38501479 101.01953125 72.45703125 C100.52533691 73.02760254 100.03114258 73.59817383 99.52197266 74.18603516 C96.88000841 77.33486325 94.44527238 80.63509739 92 83.9375 C90.98193638 85.30741471 89.96370816 86.67720711 88.9453125 88.046875 C88.2032959 89.04557617 88.2032959 89.04557617 87.44628906 90.06445312 C84.49508377 94.01400673 81.47648108 97.91111328 78.45703125 101.80859375 C76.7027059 104.07610357 74.97634805 106.3624925 73.26171875 108.66015625 C72.81006348 109.26061768 72.3584082 109.8610791 71.89306641 110.47973633 C71.02635656 111.63285799 70.16505733 112.79007268 69.31005859 113.9519043 C67.26009973 116.66583289 66.30766175 117.89744608 63 119 C55.46610615 119.76190672 47.86450664 119.91954823 40.29741764 120.11837482 C36.84213543 120.21125288 33.39757781 120.34150158 29.94799805 120.5637207 C7.72952133 121.95903798 7.72952133 121.95903798 1.60412598 117.09909058 C-2.34721203 112.40607296 -4.76644929 107.19177397 -6.96554565 101.50514221 C-8.52800909 97.72131827 -10.6708887 94.37294567 -12.875 90.9375 C-15.97367233 85.82937127 -18.90201569 80.64007582 -21.7109375 75.3671875 C-22.97228534 72.94398083 -22.97228534 72.94398083 -24.6640625 70.6328125 C-26.43588033 67.14098439 -26.4104546 64.88256543 -26 61 C-24.6796875 57.59765625 -24.6796875 57.59765625 -22.875 54.0625 C-20.19340283 48.65626345 -17.86382823 43.23828543 -15.8125 37.5625 C-14.10212762 32.8500445 -12.2848313 28.33310935 -9.92578125 23.90625 C-8.35889797 20.67992494 -7.27024304 17.27845032 -6.08203125 13.8984375 C-4.30975044 9.15102824 -2.16175145 4.58043238 0 0 Z " fill="#FFFCFC" transform="translate(61,40)"/>
<path d="M0 0 C8.37109416 -0.18565712 16.74132354 -0.32765072 25.1139698 -0.41449738 C29.00217708 -0.45618836 32.88897254 -0.51269486 36.77636719 -0.60351562 C40.53068697 -0.69067482 44.28365245 -0.73831995 48.0389061 -0.75901794 C49.46878253 -0.77375964 50.89858768 -0.8025505 52.32788467 -0.84584045 C63.51641442 -1.17112429 63.51641442 -1.17112429 67.17747498 1.71887207 C68.73062818 3.75406354 69.88648726 5.70039035 71 8 C71.66644531 9.0828125 72.33289063 10.165625 73.01953125 11.28125 C73.61121094 12.3434375 74.20289063 13.405625 74.8125 14.5 C75.31052124 15.38667358 75.31052124 15.38667358 75.81860352 16.29125977 C76.88457866 18.1911526 77.94271714 20.09525835 79 22 C80.10270511 23.97786006 81.20714626 25.95472196 82.3137207 27.93041992 C83.06185346 29.26659186 83.80779269 30.60399438 84.55151367 31.94262695 C86.48918715 35.40771731 88.48673669 38.81400332 90.60546875 42.171875 C91.02707275 42.84613525 91.44867676 43.52039551 91.88305664 44.21508789 C92.6911192 45.49842531 93.51136581 46.77419791 94.34545898 48.04077148 C97.08801386 52.4099871 97.08801386 52.4099871 96.59716797 55.70043945 C96.30156982 56.83872192 96.30156982 56.83872192 96 58 C91.07042741 58.07414321 86.14117919 58.12859817 81.21118164 58.16479492 C79.5340408 58.17988384 77.85693943 58.20035748 76.17993164 58.22631836 C73.76959496 58.26269811 71.35977981 58.27972486 68.94921875 58.29296875 C68.19912033 58.30845261 67.44902191 58.32393646 66.67619324 58.33988953 C61.47874677 58.34157076 61.47874677 58.34157076 59.12207031 56.66015625 C57.37452477 54.07457973 55.68977545 51.47673408 54.0625 48.8125 C53.05896484 47.18248047 53.05896484 47.18248047 52.03515625 45.51953125 C49.81354716 41.78009288 47.90868148 37.90703257 46 34 C45.1529248 34.0220752 44.30584961 34.04415039 43.43310547 34.06689453 C40.26742068 34.12541397 37.10556677 34.13870224 33.93945312 34.12207031 C32.57375024 34.1240084 31.20794756 34.14359156 29.84277344 34.18164062 C18.55937538 34.47813868 18.55937538 34.47813868 14.93798828 31.04541016 C13.36830185 28.43164983 12.18344482 25.80793407 11 23 C10.02838367 21.32075488 9.03112527 19.65606412 8.0078125 18.0078125 C7.04608564 16.38067463 6.08514493 14.75307184 5.125 13.125 C4.62742187 12.29742187 4.12984375 11.46984375 3.6171875 10.6171875 C3.14796875 9.81796875 2.67875 9.01875 2.1953125 8.1953125 C1.56133545 7.12821045 1.56133545 7.12821045 0.91455078 6.03955078 C0 4 0 4 0 0 Z " fill="#FFFCFC" transform="translate(72,34)"/>
</svg>
